<?xml version="1.0" encoding="UTF-8" standalone="no"?>
<!DOCTYPE svg PUBLIC "-//W3C//DTD SVG 1.1//EN"
 "http://www.w3.org/Graphics/SVG/1.1/DTD/svg11.dtd">
<!-- Generated by graphviz version 2.42.4 (0)
 -->
<!-- Title: DFA Pages: 1 -->
<svg width="413pt" height="237pt"
 viewBox="0.00 0.00 413.49 236.53" xmlns="http://www.w3.org/2000/svg" xmlns:xlink="http://www.w3.org/1999/xlink">
<g id="graph0" class="graph" transform="scale(1 1) rotate(0) translate(4 232.53)">
<title>DFA</title>
<polygon fill="white" stroke="transparent" points="-4,4 -4,-232.53 409.49,-232.53 409.49,4 -4,4"/>
<!-- 0 -->
<g id="node1" class="node">
<title>0</title>
<ellipse fill="none" stroke="black" cx="18" cy="-127.53" rx="18" ry="18"/>
<text text-anchor="middle" x="18" y="-123.83" font-family="Times,serif" font-size="14.00">0</text>
</g>
<!-- 15 -->
<g id="node2" class="node">
<title>15</title>
<ellipse fill="none" stroke="black" cx="120.75" cy="-161.53" rx="23" ry="23"/>
<text text-anchor="middle" x="120.75" y="-157.83" font-family="Times,serif" font-size="14.00">15</text>
</g>
<!-- 0&#45;&gt;15 -->
<g id="edge1" class="edge">
<title>0&#45;&gt;15</title>
<path fill="none" stroke="black" d="M35.19,-133C49.69,-137.89 71.36,-145.21 89.13,-151.2"/>
<polygon fill="black" stroke="black" points="88.47,-154.67 99.06,-154.55 90.71,-148.04 88.47,-154.67"/>
<text text-anchor="middle" x="67" y="-151.33" font-family="Times,serif" font-size="14.00">&quot;#&quot;</text>
</g>
<!-- 16 -->
<g id="node3" class="node">
<title>16</title>
<ellipse fill="none" stroke="black" cx="228.24" cy="-170.53" rx="23" ry="23"/>
<text text-anchor="middle" x="228.24" y="-166.83" font-family="Times,serif" font-size="14.00">16</text>
</g>
<!-- 15&#45;&gt;16 -->
<g id="edge2" class="edge">
<title>15&#45;&gt;16</title>
<path fill="none" stroke="black" d="M143.61,-163.4C158.46,-164.67 178.36,-166.36 195.02,-167.79"/>
<polygon fill="black" stroke="black" points="195.15,-171.31 205.41,-168.67 195.75,-164.33 195.15,-171.31"/>
<text text-anchor="middle" x="174.5" y="-170.33" font-family="Times,serif" font-size="14.00">&quot;#&quot;</text>
</g>
<!-- 16&#45;&gt;16 -->
<g id="edge3" class="edge">
<title>16&#45;&gt;16</title>
<path fill="none" stroke="black" d="M218.78,-191.5C217.47,-201.96 220.63,-211.28 228.24,-211.28 233.24,-211.28 236.32,-207.27 237.47,-201.55"/>
<polygon fill="black" stroke="black" points="240.97,-201.58 237.71,-191.5 233.98,-201.42 240.97,-201.58"/>
<text text-anchor="middle" x="228.24" y="-215.08" font-family="Times,serif" font-size="14.00">C &#45; n &#45; &quot;#&quot;</text>
</g>
<!-- 16&#45;&gt;16 -->
<g id="edge4" class="edge">
<title>16:s&#45;&gt;16</title>
<path fill="none" stroke="black" d="M228.24,-147.53C215.24,-141.79 215.24,-129.79 228.24,-129.79 233.24,-129.79 236.32,-133.8 237.47,-139.52"/>
<polygon fill="black" stroke="black" points="233.98,-139.65 237.71,-149.57 240.97,-139.49 233.98,-139.65"/>
<text text-anchor="middle" x="228.24" y="-118.59" font-family="Times,serif" font-size="14.00">n </text>
<text text-anchor="middle" x="228.24" y="-103.59" font-family="Times,serif" font-size="14.00"> ASN</text>
</g>
<!-- 17 -->
<g id="node4" class="node">
<title>17</title>
<ellipse fill="none" stroke="black" cx="382.74" cy="-161.53" rx="23" ry="23"/>
<text text-anchor="middle" x="382.74" y="-157.83" font-family="Times,serif" font-size="14.00">17</text>
</g>
<!-- 16&#45;&gt;17 -->
<g id="edge5" class="edge">
<title>16&#45;&gt;17</title>
<path fill="none" stroke="black" d="M243.77,-187.36C250.65,-194.06 259.45,-201.01 268.99,-204.53 299.43,-215.78 312.27,-217.54 341.99,-204.53 350.16,-200.96 357.39,-194.79 363.38,-188.22"/>
<polygon fill="black" stroke="black" points="366.13,-190.39 369.81,-180.46 360.73,-185.93 366.13,-190.39"/>
<text text-anchor="middle" x="305.49" y="-217.33" font-family="Times,serif" font-size="14.00">&quot;#&quot;</text>
</g>
<!-- 17&#45;&gt;0 -->
<g id="edge8" class="edge">
<title>17:s&#45;&gt;0:s</title>
<path fill="none" stroke="black" d="M382.74,-137.53C382.74,21.59 33.5,52.78 18.5,-98.32"/>
<polygon fill="black" stroke="black" points="14.99,-98.38 18,-108.53 21.98,-98.72 14.99,-98.38"/>
<text text-anchor="middle" x="174.5" y="-4.33" font-family="Times,serif" font-size="14.00">&quot;#&quot;</text>
</g>
<!-- 17&#45;&gt;16 -->
<g id="edge6" class="edge">
<title>17&#45;&gt;16</title>
<path fill="none" stroke="black" d="M359.91,-164.64C354.1,-165.37 347.82,-166.07 341.99,-166.53 314.86,-168.72 283.95,-169.71 261.37,-170.16"/>
<polygon fill="black" stroke="black" points="261.25,-166.66 251.31,-170.34 261.37,-173.66 261.25,-166.66"/>
<text text-anchor="middle" x="305.49" y="-173.33" font-family="Times,serif" font-size="14.00">C &#45; n &#45; &quot;#&quot;</text>
</g>
<!-- 17&#45;&gt;16 -->
<g id="edge7" class="edge">
<title>17&#45;&gt;16</title>
<path fill="none" stroke="black" d="M365.66,-146.22C358.89,-140.8 350.6,-135.34 341.99,-132.53 311.15,-122.48 299.1,-120.46 268.99,-132.53 261.93,-135.37 255.4,-140.12 249.77,-145.33"/>
<polygon fill="black" stroke="black" points="247.18,-142.98 242.68,-152.57 252.18,-147.88 247.18,-142.98"/>
<text text-anchor="middle" x="305.49" y="-151.33" font-family="Times,serif" font-size="14.00">n </text>
<text text-anchor="middle" x="305.49" y="-136.33" font-family="Times,serif" font-size="14.00"> ASN</text>
</g>
</g>
</svg>
