<?xml version="1.0" encoding="UTF-8" standalone="no"?>
<!DOCTYPE svg PUBLIC "-//W3C//DTD SVG 1.1//EN"
 "http://www.w3.org/Graphics/SVG/1.1/DTD/svg11.dtd">
<!-- Generated by graphviz version 2.42.4 (0)
 -->
<!-- Title: DFA Pages: 1 -->
<svg width="390pt" height="165pt"
 viewBox="0.00 0.00 390.49 164.58" xmlns="http://www.w3.org/2000/svg" xmlns:xlink="http://www.w3.org/1999/xlink">
<g id="graph0" class="graph" transform="scale(1 1) rotate(0) translate(4 160.58)">
<title>DFA</title>
<polygon fill="white" stroke="transparent" points="-4,4 -4,-160.58 386.49,-160.58 386.49,4 -4,4"/>
<!-- 0 -->
<g id="node1" class="node">
<title>0</title>
<ellipse fill="none" stroke="black" cx="18" cy="-74.83" rx="18" ry="18"/>
<text text-anchor="middle" x="18" y="-71.13" font-family="Times,serif" font-size="14.00">0</text>
</g>
<!-- 15 -->
<g id="node2" class="node">
<title>15</title>
<ellipse fill="none" stroke="black" cx="120.75" cy="-100.83" rx="23" ry="23"/>
<text text-anchor="middle" x="120.75" y="-97.13" font-family="Times,serif" font-size="14.00">15</text>
</g>
<!-- 0&#45;&gt;15 -->
<g id="edge1" class="edge">
<title>0&#45;&gt;15</title>
<path fill="none" stroke="black" d="M35.64,-79.12C50.03,-82.84 71.21,-88.31 88.72,-92.82"/>
<polygon fill="black" stroke="black" points="87.97,-96.24 98.53,-95.35 89.72,-89.47 87.97,-96.24"/>
<text text-anchor="middle" x="67" y="-93.63" font-family="Times,serif" font-size="14.00">&quot;#&quot;</text>
</g>
<!-- 16 -->
<g id="node3" class="node">
<title>16</title>
<ellipse fill="none" stroke="black" cx="228.24" cy="-100.83" rx="23" ry="23"/>
<text text-anchor="middle" x="228.24" y="-97.13" font-family="Times,serif" font-size="14.00">16</text>
</g>
<!-- 15&#45;&gt;16 -->
<g id="edge2" class="edge">
<title>15&#45;&gt;16</title>
<path fill="none" stroke="black" d="M143.61,-100.83C158.46,-100.83 178.36,-100.83 195.02,-100.83"/>
<polygon fill="black" stroke="black" points="195.41,-104.33 205.41,-100.83 195.41,-97.33 195.41,-104.33"/>
<text text-anchor="middle" x="174.5" y="-104.63" font-family="Times,serif" font-size="14.00">&quot;#&quot;</text>
</g>
<!-- 16&#45;&gt;16 -->
<g id="edge3" class="edge">
<title>16&#45;&gt;16</title>
<path fill="none" stroke="black" d="M218.78,-121.8C217.47,-132.25 220.63,-141.58 228.24,-141.58 233.24,-141.58 236.32,-137.56 237.47,-131.85"/>
<polygon fill="black" stroke="black" points="240.97,-131.87 237.71,-121.8 233.98,-131.71 240.97,-131.87"/>
<text text-anchor="middle" x="228.24" y="-145.38" font-family="Times,serif" font-size="14.00">C &#45; n &#45; &quot;#&quot;</text>
</g>
<!-- 16&#45;&gt;16 -->
<g id="edge4" class="edge">
<title>16:s&#45;&gt;16</title>
<path fill="none" stroke="black" d="M228.24,-77.83C215.24,-72.08 215.24,-60.08 228.24,-60.08 233.24,-60.08 236.32,-64.1 237.47,-69.82"/>
<polygon fill="black" stroke="black" points="233.98,-69.95 237.71,-79.87 240.97,-69.79 233.98,-69.95"/>
<text text-anchor="middle" x="228.24" y="-48.88" font-family="Times,serif" font-size="14.00">n </text>
<text text-anchor="middle" x="228.24" y="-33.88" font-family="Times,serif" font-size="14.00"> ASN</text>
</g>
<!-- 17 -->
<g id="node4" class="node">
<title>17</title>
<ellipse fill="none" stroke="black" cx="359.74" cy="-82.83" rx="23" ry="23"/>
<text text-anchor="middle" x="359.74" y="-79.13" font-family="Times,serif" font-size="14.00">17</text>
</g>
<!-- 16&#45;&gt;17 -->
<g id="edge5" class="edge">
<title>16&#45;&gt;17</title>
<path fill="none" stroke="black" d="M251.25,-102.52C269.57,-103.41 296.24,-103.5 318.99,-98.83 322.45,-98.12 325.99,-97.13 329.46,-95.97"/>
<polygon fill="black" stroke="black" points="330.82,-99.2 338.96,-92.42 328.36,-92.65 330.82,-99.2"/>
<text text-anchor="middle" x="293.99" y="-106.63" font-family="Times,serif" font-size="14.00">&quot;#&quot;</text>
</g>
<!-- 17&#45;&gt;0 -->
<g id="edge7" class="edge">
<title>17:s&#45;&gt;0:s</title>
<path fill="none" stroke="black" d="M359.74,-58.83C359.74,13.55 49.29,19.67 20.18,-45.67"/>
<polygon fill="black" stroke="black" points="16.68,-45.32 18,-55.83 23.52,-46.79 16.68,-45.32"/>
<text text-anchor="middle" x="174.5" y="-4.63" font-family="Times,serif" font-size="14.00">&quot;#&quot;</text>
</g>
<!-- 17&#45;&gt;16 -->
<g id="edge6" class="edge">
<title>17&#45;&gt;16</title>
<path fill="none" stroke="black" d="M337,-78.82C318.6,-76.2 291.69,-74.2 268.99,-79.83 265.01,-80.82 261,-82.28 257.12,-83.99"/>
<polygon fill="black" stroke="black" points="255.28,-80.99 247.89,-88.59 258.4,-87.26 255.28,-80.99"/>
<text text-anchor="middle" x="293.99" y="-83.63" font-family="Times,serif" font-size="14.00">C &#45; &quot;#&quot;</text>
</g>
</g>
</svg>
