<?xml version="1.0" encoding="UTF-8" standalone="no"?>
<!DOCTYPE svg PUBLIC "-//W3C//DTD SVG 1.1//EN"
 "http://www.w3.org/Graphics/SVG/1.1/DTD/svg11.dtd">
<!-- Generated by graphviz version 2.42.4 (0)
 -->
<!-- Title: DFA Pages: 1 -->
<svg width="45pt" height="125pt"
 viewBox="0.00 0.00 45.00 125.00" xmlns="http://www.w3.org/2000/svg" xmlns:xlink="http://www.w3.org/1999/xlink">
<g id="graph0" class="graph" transform="scale(1 1) rotate(0) translate(4 121)">
<title>DFA</title>
<polygon fill="white" stroke="transparent" points="-4,4 -4,-121 41,-121 41,4 -4,4"/>
<!-- 0 -->
<g id="node1" class="node">
<title>0</title>
<ellipse fill="none" stroke="black" cx="18.5" cy="-66" rx="18" ry="18"/>
<text text-anchor="middle" x="18.5" y="-62.3" font-family="Times,serif" font-size="14.00">0</text>
</g>
<!-- 0&#45;&gt;0 -->
<g id="edge1" class="edge">
<title>0&#45;&gt;0</title>
<path fill="none" stroke="black" d="M12.12,-83.04C10.82,-92.86 12.95,-102 18.5,-102 21.97,-102 24.1,-98.43 24.9,-93.35"/>
<polygon fill="black" stroke="black" points="28.4,-93.03 24.88,-83.04 21.4,-93.04 28.4,-93.03"/>
<text text-anchor="middle" x="18.5" y="-105.8" font-family="Times,serif" font-size="14.00">s, t</text>
</g>
<!-- 0&#45;&gt;0 -->
<g id="edge2" class="edge">
<title>0:s&#45;&gt;0</title>
<path fill="none" stroke="black" d="M18.5,-48C9.5,-42 9.5,-30 18.5,-30 21.97,-30 24.1,-33.57 24.9,-38.65"/>
<polygon fill="black" stroke="black" points="21.4,-38.96 24.88,-48.96 28.4,-38.97 21.4,-38.96"/>
<text text-anchor="middle" x="18.5" y="-18.8" font-family="Times,serif" font-size="14.00">n </text>
<text text-anchor="middle" x="18.5" y="-3.8" font-family="Times,serif" font-size="14.00"> ASN</text>
</g>
</g>
</svg>
