<?xml version="1.0" encoding="UTF-8" standalone="no"?>
<!DOCTYPE svg PUBLIC "-//W3C//DTD SVG 1.1//EN"
 "http://www.w3.org/Graphics/SVG/1.1/DTD/svg11.dtd">
<!-- Generated by graphviz version 2.42.4 (0)
 -->
<!-- Title: DFA Pages: 1 -->
<svg width="897pt" height="187pt"
 viewBox="0.00 0.00 897.00 187.00" xmlns="http://www.w3.org/2000/svg" xmlns:xlink="http://www.w3.org/1999/xlink">
<g id="graph0" class="graph" transform="scale(1 1) rotate(0) translate(4 183)">
<title>DFA</title>
<polygon fill="white" stroke="transparent" points="-4,4 -4,-183 893,-183 893,4 -4,4"/>
<!-- F -->
<g id="node1" class="node">
<title>F</title>
<ellipse fill="none" stroke="black" cx="867" cy="-65" rx="18" ry="18"/>
<ellipse fill="none" stroke="black" cx="867" cy="-65" rx="22" ry="22"/>
<text text-anchor="middle" x="867" y="-61.3" font-family="Times,serif" font-size="14.00">F</text>
</g>
<!-- 0 -->
<g id="node2" class="node">
<title>0</title>
<ellipse fill="none" stroke="black" cx="18" cy="-85" rx="18" ry="18"/>
<text text-anchor="middle" x="18" y="-81.3" font-family="Times,serif" font-size="14.00">0</text>
</g>
<!-- 1 -->
<g id="node3" class="node">
<title>1</title>
<ellipse fill="none" stroke="black" cx="161" cy="-113" rx="18" ry="18"/>
<text text-anchor="middle" x="161" y="-109.3" font-family="Times,serif" font-size="14.00">1</text>
</g>
<!-- 0&#45;&gt;1 -->
<g id="edge1" class="edge">
<title>0:n&#45;&gt;1</title>
<path fill="none" stroke="black" d="M18,-104C18,-150 93.14,-133.84 134.1,-121.61"/>
<polygon fill="black" stroke="black" points="135.2,-124.94 143.71,-118.63 133.12,-118.25 135.2,-124.94"/>
<text text-anchor="middle" x="89.5" y="-152.8" font-family="Times,serif" font-size="14.00">d </text>
<text text-anchor="middle" x="89.5" y="-137.8" font-family="Times,serif" font-size="14.00"> AS1, AS4</text>
</g>
<!-- 3 -->
<g id="node4" class="node">
<title>3</title>
<ellipse fill="none" stroke="black" cx="161" cy="-59" rx="18" ry="18"/>
<text text-anchor="middle" x="161" y="-55.3" font-family="Times,serif" font-size="14.00">3</text>
</g>
<!-- 0&#45;&gt;3 -->
<g id="edge2" class="edge">
<title>0:s&#45;&gt;3</title>
<path fill="none" stroke="black" d="M18,-66C18,-20.04 93.14,-37.24 134.1,-50.03"/>
<polygon fill="black" stroke="black" points="133.12,-53.39 143.71,-53.15 135.28,-46.73 133.12,-53.39"/>
<text text-anchor="middle" x="89.5" y="-65.8" font-family="Times,serif" font-size="14.00">&quot;.&quot; </text>
<text text-anchor="middle" x="89.5" y="-50.8" font-family="Times,serif" font-size="14.00"> AS1, AS4</text>
</g>
<!-- 1&#45;&gt;1 -->
<g id="edge3" class="edge">
<title>1&#45;&gt;1</title>
<path fill="none" stroke="black" d="M152.02,-128.92C149.68,-139.15 152.67,-149 161,-149 166.47,-149 169.63,-144.76 170.5,-138.95"/>
<polygon fill="black" stroke="black" points="174,-138.72 169.98,-128.92 167.01,-139.09 174,-138.72"/>
<text text-anchor="middle" x="161" y="-167.8" font-family="Times,serif" font-size="14.00">d </text>
<text text-anchor="middle" x="161" y="-152.8" font-family="Times,serif" font-size="14.00"> AS2</text>
</g>
<!-- 4 -->
<g id="node5" class="node">
<title>4</title>
<ellipse fill="none" stroke="black" cx="267" cy="-85" rx="18" ry="18"/>
<text text-anchor="middle" x="267" y="-81.3" font-family="Times,serif" font-size="14.00">4</text>
</g>
<!-- 1&#45;&gt;4 -->
<g id="edge4" class="edge">
<title>1&#45;&gt;4</title>
<path fill="none" stroke="black" d="M178.71,-108.5C195.08,-104.09 220.3,-97.3 239.43,-92.15"/>
<polygon fill="black" stroke="black" points="240.59,-95.47 249.33,-89.49 238.77,-88.71 240.59,-95.47"/>
<text text-anchor="middle" x="214" y="-121.8" font-family="Times,serif" font-size="14.00">&quot;.&quot; </text>
<text text-anchor="middle" x="214" y="-106.8" font-family="Times,serif" font-size="14.00"> AS2</text>
</g>
<!-- 3&#45;&gt;4 -->
<g id="edge5" class="edge">
<title>3&#45;&gt;4</title>
<path fill="none" stroke="black" d="M178.91,-56.49C193.17,-55.01 213.93,-54.39 231,-60 235.89,-61.61 240.68,-64.16 245.07,-67.03"/>
<polygon fill="black" stroke="black" points="243.3,-70.07 253.43,-73.17 247.44,-64.43 243.3,-70.07"/>
<text text-anchor="middle" x="214" y="-78.8" font-family="Times,serif" font-size="14.00">d </text>
<text text-anchor="middle" x="214" y="-63.8" font-family="Times,serif" font-size="14.00"> AS2</text>
</g>
<!-- 4&#45;&gt;F -->
<g id="edge7" class="edge">
<title>4&#45;&gt;F</title>
<path fill="none" stroke="black" d="M283.88,-91.81C304,-99.81 339.91,-112 372,-112 372,-112 372,-112 683,-112 747.81,-112 766.23,-111.53 827,-89 831.4,-87.37 835.84,-85.22 840.07,-82.87"/>
<polygon fill="black" stroke="black" points="842.14,-85.71 848.89,-77.55 838.52,-79.71 842.14,-85.71"/>
<text text-anchor="middle" x="539.5" y="-130.8" font-family="Times,serif" font-size="14.00">c &#45; d </text>
<text text-anchor="middle" x="539.5" y="-115.8" font-family="Times,serif" font-size="14.00"> ASF, AS3, ASR</text>
</g>
<!-- 4&#45;&gt;4 -->
<g id="edge6" class="edge">
<title>4&#45;&gt;4</title>
<path fill="none" stroke="black" d="M258.02,-100.92C255.68,-111.15 258.67,-121 267,-121 272.47,-121 275.63,-116.76 276.5,-110.95"/>
<polygon fill="black" stroke="black" points="280,-110.72 275.98,-100.92 273.01,-111.09 280,-110.72"/>
<text text-anchor="middle" x="267" y="-139.8" font-family="Times,serif" font-size="14.00">d </text>
<text text-anchor="middle" x="267" y="-124.8" font-family="Times,serif" font-size="14.00"> AS2</text>
</g>
<!-- 5 -->
<g id="node6" class="node">
<title>5</title>
<ellipse fill="none" stroke="black" cx="373" cy="-59" rx="18" ry="18"/>
<text text-anchor="middle" x="373" y="-55.3" font-family="Times,serif" font-size="14.00">5</text>
</g>
<!-- 4&#45;&gt;5 -->
<g id="edge8" class="edge">
<title>4&#45;&gt;5</title>
<path fill="none" stroke="black" d="M282.9,-76.45C288.96,-73.32 296.14,-70.05 303,-68 316.47,-63.97 331.96,-61.74 344.84,-60.51"/>
<polygon fill="black" stroke="black" points="345.27,-63.99 354.95,-59.7 344.7,-57.01 345.27,-63.99"/>
<text text-anchor="middle" x="320" y="-86.8" font-family="Times,serif" font-size="14.00">&quot;F&quot; </text>
<text text-anchor="middle" x="320" y="-71.8" font-family="Times,serif" font-size="14.00"> AS2</text>
</g>
<!-- 6 -->
<g id="node7" class="node">
<title>6</title>
<ellipse fill="none" stroke="black" cx="539.5" cy="-48" rx="18" ry="18"/>
<text text-anchor="middle" x="539.5" y="-44.3" font-family="Times,serif" font-size="14.00">6</text>
</g>
<!-- 5&#45;&gt;6 -->
<g id="edge9" class="edge">
<title>5&#45;&gt;6</title>
<path fill="none" stroke="black" d="M390.98,-57.86C419.43,-55.96 476.94,-52.12 511.14,-49.83"/>
<polygon fill="black" stroke="black" points="511.62,-53.31 521.36,-49.15 511.15,-46.32 511.62,-53.31"/>
<text text-anchor="middle" x="438" y="-75.8" font-family="Times,serif" font-size="14.00">&quot;+&quot;, &quot;&#45;&quot; </text>
<text text-anchor="middle" x="438" y="-60.8" font-family="Times,serif" font-size="14.00"> AS2</text>
</g>
<!-- 7 -->
<g id="node8" class="node">
<title>7</title>
<ellipse fill="none" stroke="black" cx="682" cy="-18" rx="18" ry="18"/>
<text text-anchor="middle" x="682" y="-14.3" font-family="Times,serif" font-size="14.00">7</text>
</g>
<!-- 6&#45;&gt;7 -->
<g id="edge10" class="edge">
<title>6&#45;&gt;7</title>
<path fill="none" stroke="black" d="M557.17,-44.44C581.15,-39.32 625.63,-29.82 654.24,-23.71"/>
<polygon fill="black" stroke="black" points="655.3,-27.07 664.35,-21.55 653.84,-20.22 655.3,-27.07"/>
<text text-anchor="middle" x="629" y="-51.8" font-family="Times,serif" font-size="14.00">d </text>
<text text-anchor="middle" x="629" y="-36.8" font-family="Times,serif" font-size="14.00"> AS2</text>
</g>
<!-- 7&#45;&gt;F -->
<g id="edge12" class="edge">
<title>7&#45;&gt;F</title>
<path fill="none" stroke="black" d="M699.56,-22.25C730.33,-30.16 796.73,-47.21 835.72,-57.22"/>
<polygon fill="black" stroke="black" points="834.92,-60.63 845.47,-59.73 836.66,-53.85 834.92,-60.63"/>
<text text-anchor="middle" x="772.5" y="-73.8" font-family="Times,serif" font-size="14.00">c &#45; d </text>
<text text-anchor="middle" x="772.5" y="-58.8" font-family="Times,serif" font-size="14.00"> ASF, AS3, ASR</text>
</g>
<!-- 7&#45;&gt;7 -->
<g id="edge11" class="edge">
<title>7&#45;&gt;7</title>
<path fill="none" stroke="black" d="M673.02,-33.92C670.68,-44.15 673.67,-54 682,-54 687.47,-54 690.63,-49.76 691.5,-43.95"/>
<polygon fill="black" stroke="black" points="695,-43.72 690.98,-33.92 688.01,-44.09 695,-43.72"/>
<text text-anchor="middle" x="682" y="-72.8" font-family="Times,serif" font-size="14.00">d </text>
<text text-anchor="middle" x="682" y="-57.8" font-family="Times,serif" font-size="14.00"> AS2</text>
</g>
</g>
</svg>
