<?xml version="1.0" encoding="UTF-8" standalone="no"?>
<!DOCTYPE svg PUBLIC "-//W3C//DTD SVG 1.1//EN"
 "http://www.w3.org/Graphics/SVG/1.1/DTD/svg11.dtd">
<!-- Generated by graphviz version 2.42.4 (0)
 -->
<!-- Title: DFA Pages: 1 -->
<svg width="386pt" height="101pt"
 viewBox="0.00 0.00 386.50 101.50" xmlns="http://www.w3.org/2000/svg" xmlns:xlink="http://www.w3.org/1999/xlink">
<g id="graph0" class="graph" transform="scale(1 1) rotate(0) translate(4 97.5)">
<title>DFA</title>
<polygon fill="white" stroke="transparent" points="-4,4 -4,-97.5 382.5,-97.5 382.5,4 -4,4"/>
<!-- F -->
<g id="node1" class="node">
<title>F</title>
<ellipse fill="none" stroke="black" cx="356.5" cy="-22.75" rx="18" ry="18"/>
<ellipse fill="none" stroke="black" cx="356.5" cy="-22.75" rx="22" ry="22"/>
<text text-anchor="middle" x="356.5" y="-19.05" font-family="Times,serif" font-size="14.00">F</text>
</g>
<!-- 0 -->
<g id="node2" class="node">
<title>0</title>
<ellipse fill="none" stroke="black" cx="18" cy="-22.75" rx="18" ry="18"/>
<text text-anchor="middle" x="18" y="-19.05" font-family="Times,serif" font-size="14.00">0</text>
</g>
<!-- 18 -->
<g id="node3" class="node">
<title>18</title>
<ellipse fill="none" stroke="black" cx="165.75" cy="-22.75" rx="23" ry="23"/>
<text text-anchor="middle" x="165.75" y="-19.05" font-family="Times,serif" font-size="14.00">18</text>
</g>
<!-- 0&#45;&gt;18 -->
<g id="edge1" class="edge">
<title>0&#45;&gt;18</title>
<path fill="none" stroke="black" d="M36,-22.75C59.55,-22.75 102.53,-22.75 132.31,-22.75"/>
<polygon fill="black" stroke="black" points="132.63,-26.25 142.63,-22.75 132.63,-19.25 132.63,-26.25"/>
<text text-anchor="middle" x="89.5" y="-41.55" font-family="Times,serif" font-size="14.00">L </text>
<text text-anchor="middle" x="89.5" y="-26.55" font-family="Times,serif" font-size="14.00"> AS1, AS4</text>
</g>
<!-- 18&#45;&gt;F -->
<g id="edge3" class="edge">
<title>18&#45;&gt;F</title>
<path fill="none" stroke="black" d="M188.77,-22.75C222.28,-22.75 286.21,-22.75 324.43,-22.75"/>
<polygon fill="black" stroke="black" points="324.48,-26.25 334.48,-22.75 324.48,-19.25 324.48,-26.25"/>
<text text-anchor="middle" x="261.5" y="-41.55" font-family="Times,serif" font-size="14.00">C &#45; L &#45; d &#45; &quot;%&quot;</text>
<text text-anchor="middle" x="261.5" y="-26.55" font-family="Times,serif" font-size="14.00"> AS5, AS3, ASR</text>
</g>
<!-- 18&#45;&gt;18 -->
<g id="edge2" class="edge">
<title>18&#45;&gt;18</title>
<path fill="none" stroke="black" d="M152.39,-41.61C149.42,-52.88 153.87,-63.5 165.75,-63.5 173.91,-63.5 178.57,-58.48 179.72,-51.68"/>
<polygon fill="black" stroke="black" points="183.2,-51.38 179.11,-41.61 176.22,-51.8 183.2,-51.38"/>
<text text-anchor="middle" x="165.75" y="-82.3" font-family="Times,serif" font-size="14.00">L, d, &quot;%&quot;</text>
<text text-anchor="middle" x="165.75" y="-67.3" font-family="Times,serif" font-size="14.00">AS2</text>
</g>
</g>
</svg>
