<?xml version="1.0" encoding="UTF-8" standalone="no"?>
<!DOCTYPE svg PUBLIC "-//W3C//DTD SVG 1.1//EN"
 "http://www.w3.org/Graphics/SVG/1.1/DTD/svg11.dtd">
<!-- Generated by graphviz version 2.42.4 (0)
 -->
<!-- Title: DFA Pages: 1 -->
<svg width="303pt" height="96pt"
 viewBox="0.00 0.00 303.00 96.00" xmlns="http://www.w3.org/2000/svg" xmlns:xlink="http://www.w3.org/1999/xlink">
<g id="graph0" class="graph" transform="scale(1 1) rotate(0) translate(4 92)">
<title>DFA</title>
<polygon fill="white" stroke="transparent" points="-4,4 -4,-92 299,-92 299,4 -4,4"/>
<!-- F -->
<g id="node1" class="node">
<title>F</title>
<ellipse fill="none" stroke="black" cx="273" cy="-22" rx="18" ry="18"/>
<ellipse fill="none" stroke="black" cx="273" cy="-22" rx="22" ry="22"/>
<text text-anchor="middle" x="273" y="-18.3" font-family="Times,serif" font-size="14.00">F</text>
</g>
<!-- 0 -->
<g id="node2" class="node">
<title>0</title>
<ellipse fill="none" stroke="black" cx="18" cy="-22" rx="18" ry="18"/>
<text text-anchor="middle" x="18" y="-18.3" font-family="Times,serif" font-size="14.00">0</text>
</g>
<!-- 9 -->
<g id="node3" class="node">
<title>9</title>
<ellipse fill="none" stroke="black" cx="124" cy="-22" rx="18" ry="18"/>
<text text-anchor="middle" x="124" y="-18.3" font-family="Times,serif" font-size="14.00">9</text>
</g>
<!-- 0&#45;&gt;9 -->
<g id="edge1" class="edge">
<title>0&#45;&gt;9</title>
<path fill="none" stroke="black" d="M36.17,-22C52.36,-22 76.87,-22 95.73,-22"/>
<polygon fill="black" stroke="black" points="95.8,-25.5 105.8,-22 95.8,-18.5 95.8,-25.5"/>
<text text-anchor="middle" x="71" y="-40.8" font-family="Times,serif" font-size="14.00">l </text>
<text text-anchor="middle" x="71" y="-25.8" font-family="Times,serif" font-size="14.00"> AS1</text>
</g>
<!-- 9&#45;&gt;F -->
<g id="edge3" class="edge">
<title>9&#45;&gt;F</title>
<path fill="none" stroke="black" d="M142.15,-22C166.16,-22 210.23,-22 240.31,-22"/>
<polygon fill="black" stroke="black" points="240.69,-25.5 250.69,-22 240.69,-18.5 240.69,-25.5"/>
<text text-anchor="middle" x="196.5" y="-40.8" font-family="Times,serif" font-size="14.00">C &#45; l </text>
<text text-anchor="middle" x="196.5" y="-25.8" font-family="Times,serif" font-size="14.00"> AS3, ASR</text>
</g>
<!-- 9&#45;&gt;9 -->
<g id="edge2" class="edge">
<title>9&#45;&gt;9</title>
<path fill="none" stroke="black" d="M115.02,-37.92C112.68,-48.15 115.67,-58 124,-58 129.47,-58 132.63,-53.76 133.5,-47.95"/>
<polygon fill="black" stroke="black" points="137,-47.72 132.98,-37.92 130.01,-48.09 137,-47.72"/>
<text text-anchor="middle" x="124" y="-76.8" font-family="Times,serif" font-size="14.00">l </text>
<text text-anchor="middle" x="124" y="-61.8" font-family="Times,serif" font-size="14.00"> AS2</text>
</g>
</g>
</svg>
