<?xml version="1.0" encoding="UTF-8" standalone="no"?>
<!DOCTYPE svg PUBLIC "-//W3C//DTD SVG 1.1//EN"
 "http://www.w3.org/Graphics/SVG/1.1/DTD/svg11.dtd">
<!-- Generated by graphviz version 2.42.4 (0)
 -->
<!-- Title: DFA Pages: 1 -->
<svg width="338pt" height="96pt"
 viewBox="0.00 0.00 338.00 96.00" xmlns="http://www.w3.org/2000/svg" xmlns:xlink="http://www.w3.org/1999/xlink">
<g id="graph0" class="graph" transform="scale(1 1) rotate(0) translate(4 92)">
<title>DFA</title>
<polygon fill="white" stroke="transparent" points="-4,4 -4,-92 334,-92 334,4 -4,4"/>
<!-- F -->
<g id="node1" class="node">
<title>F</title>
<ellipse fill="none" stroke="black" cx="308" cy="-22" rx="18" ry="18"/>
<ellipse fill="none" stroke="black" cx="308" cy="-22" rx="22" ry="22"/>
<text text-anchor="middle" x="308" y="-18.3" font-family="Times,serif" font-size="14.00">F</text>
</g>
<!-- 0 -->
<g id="node2" class="node">
<title>0</title>
<ellipse fill="none" stroke="black" cx="18" cy="-22" rx="18" ry="18"/>
<text text-anchor="middle" x="18" y="-18.3" font-family="Times,serif" font-size="14.00">0</text>
</g>
<!-- 8 -->
<g id="node3" class="node">
<title>8</title>
<ellipse fill="none" stroke="black" cx="161" cy="-22" rx="18" ry="18"/>
<text text-anchor="middle" x="161" y="-18.3" font-family="Times,serif" font-size="14.00">8</text>
</g>
<!-- 0&#45;&gt;8 -->
<g id="edge1" class="edge">
<title>0&#45;&gt;8</title>
<path fill="none" stroke="black" d="M36.01,-22C60.04,-22 104.19,-22 132.8,-22"/>
<polygon fill="black" stroke="black" points="132.93,-25.5 142.93,-22 132.93,-18.5 132.93,-25.5"/>
<text text-anchor="middle" x="89.5" y="-40.8" font-family="Times,serif" font-size="14.00">&quot; </text>
<text text-anchor="middle" x="89.5" y="-25.8" font-family="Times,serif" font-size="14.00"> AS1, AS4</text>
</g>
<!-- 8&#45;&gt;F -->
<g id="edge3" class="edge">
<title>8&#45;&gt;F</title>
<path fill="none" stroke="black" d="M179.2,-22C202.85,-22 245.84,-22 275.37,-22"/>
<polygon fill="black" stroke="black" points="275.59,-25.5 285.59,-22 275.59,-18.5 275.59,-25.5"/>
<text text-anchor="middle" x="232.5" y="-40.8" font-family="Times,serif" font-size="14.00">&quot; </text>
<text text-anchor="middle" x="232.5" y="-25.8" font-family="Times,serif" font-size="14.00"> AS2, AS3</text>
</g>
<!-- 8&#45;&gt;8 -->
<g id="edge2" class="edge">
<title>8&#45;&gt;8</title>
<path fill="none" stroke="black" d="M149.57,-36.04C145.3,-46.91 149.11,-58 161,-58 169.18,-58 173.53,-52.76 174.07,-45.95"/>
<polygon fill="black" stroke="black" points="177.51,-45.34 172.43,-36.04 170.61,-46.48 177.51,-45.34"/>
<text text-anchor="middle" x="161" y="-76.8" font-family="Times,serif" font-size="14.00">C &#45; &quot; &#45; n </text>
<text text-anchor="middle" x="161" y="-61.8" font-family="Times,serif" font-size="14.00"> AS2</text>
</g>
</g>
</svg>
