<?xml version="1.0" encoding="UTF-8" standalone="no"?>
<!DOCTYPE svg PUBLIC "-//W3C//DTD SVG 1.1//EN"
 "http://www.w3.org/Graphics/SVG/1.1/DTD/svg11.dtd">
<!-- Generated by graphviz version 2.42.4 (0)
 -->
<!-- Title: DFA Pages: 1 -->
<svg width="490pt" height="110pt"
 viewBox="0.00 0.00 490.00 110.00" xmlns="http://www.w3.org/2000/svg" xmlns:xlink="http://www.w3.org/1999/xlink">
<g id="graph0" class="graph" transform="scale(1 1) rotate(0) translate(4 106)">
<title>DFA</title>
<polygon fill="white" stroke="transparent" points="-4,4 -4,-106 486,-106 486,4 -4,4"/>
<!-- F -->
<g id="node1" class="node">
<title>F</title>
<ellipse fill="none" stroke="black" cx="460" cy="-36" rx="18" ry="18"/>
<ellipse fill="none" stroke="black" cx="460" cy="-36" rx="22" ry="22"/>
<text text-anchor="middle" x="460" y="-32.3" font-family="Times,serif" font-size="14.00">F</text>
</g>
<!-- 0 -->
<g id="node2" class="node">
<title>0</title>
<ellipse fill="none" stroke="black" cx="18" cy="-18" rx="18" ry="18"/>
<text text-anchor="middle" x="18" y="-14.3" font-family="Times,serif" font-size="14.00">0</text>
</g>
<!-- 1 -->
<g id="node3" class="node">
<title>1</title>
<ellipse fill="none" stroke="black" cx="161" cy="-36" rx="18" ry="18"/>
<text text-anchor="middle" x="161" y="-32.3" font-family="Times,serif" font-size="14.00">1</text>
</g>
<!-- 0&#45;&gt;1 -->
<g id="edge1" class="edge">
<title>0:n&#45;&gt;1</title>
<path fill="none" stroke="black" d="M18,-37C18,-83.02 93.51,-61.39 134.4,-46.3"/>
<polygon fill="black" stroke="black" points="135.89,-49.48 143.99,-42.65 133.4,-42.94 135.89,-49.48"/>
<text text-anchor="middle" x="89.5" y="-82.8" font-family="Times,serif" font-size="14.00">d </text>
<text text-anchor="middle" x="89.5" y="-67.8" font-family="Times,serif" font-size="14.00"> AS1, AS4</text>
</g>
<!-- 1&#45;&gt;1 -->
<g id="edge2" class="edge">
<title>1&#45;&gt;1</title>
<path fill="none" stroke="black" d="M152.02,-51.92C149.68,-62.15 152.67,-72 161,-72 166.47,-72 169.63,-67.76 170.5,-61.95"/>
<polygon fill="black" stroke="black" points="174,-61.72 169.98,-51.92 167.01,-62.09 174,-61.72"/>
<text text-anchor="middle" x="161" y="-90.8" font-family="Times,serif" font-size="14.00">d </text>
<text text-anchor="middle" x="161" y="-75.8" font-family="Times,serif" font-size="14.00"> AS2</text>
</g>
<!-- 2 -->
<g id="node4" class="node">
<title>2</title>
<ellipse fill="none" stroke="black" cx="267" cy="-36" rx="18" ry="18"/>
<text text-anchor="middle" x="267" y="-32.3" font-family="Times,serif" font-size="14.00">2</text>
</g>
<!-- 1&#45;&gt;2 -->
<g id="edge3" class="edge">
<title>1&#45;&gt;2</title>
<path fill="none" stroke="black" d="M179.17,-36C195.36,-36 219.87,-36 238.73,-36"/>
<polygon fill="black" stroke="black" points="238.8,-39.5 248.8,-36 238.8,-32.5 238.8,-39.5"/>
<text text-anchor="middle" x="214" y="-54.8" font-family="Times,serif" font-size="14.00">&quot;U&quot; </text>
<text text-anchor="middle" x="214" y="-39.8" font-family="Times,serif" font-size="14.00"> AS2</text>
</g>
<!-- 2&#45;&gt;F -->
<g id="edge4" class="edge">
<title>2&#45;&gt;F</title>
<path fill="none" stroke="black" d="M285.29,-36C317.49,-36 387.07,-36 427.72,-36"/>
<polygon fill="black" stroke="black" points="427.87,-39.5 437.87,-36 427.87,-32.5 427.87,-39.5"/>
<text text-anchor="middle" x="361.5" y="-54.8" font-family="Times,serif" font-size="14.00">&quot;I&quot; </text>
<text text-anchor="middle" x="361.5" y="-39.8" font-family="Times,serif" font-size="14.00"> AS2, ASUI, AS3</text>
</g>
</g>
</svg>
