<?xml version="1.0" standalone="no"?>
<svg xmlns="http://www.w3.org/2000/svg" xmlns:xlink="http://www.w3.org/1999/xlink" width="823pt" height="280pt" viewBox="0.00 0.00 823.37 279.80">
<g id="graph0" class="graph" transform="translate(4,275.79998779296875) scale(1)" data-name="DFA">

<polygon fill="white" stroke="none" points="-4,4 -4,-275.8 819.37,-275.8 819.37,4 -4,4" style=""/>
<!-- F -->
<g id="node1" class="node" pointer-events="visible" data-name="F">

<ellipse fill="none" stroke="black" cx="793.37" cy="-99" rx="18" ry="18" style=""/>
<ellipse fill="none" stroke="black" cx="793.37" cy="-99" rx="22" ry="22" style=""/>
<text text-anchor="middle" x="793.37" y="-94.8" font-family="Times,serif" font-size="14.00" style="">F</text>
</g>
<!-- 0 -->
<g id="node2" class="node" pointer-events="visible" data-name="0">

<ellipse fill="none" stroke="black" cx="18" cy="-111" rx="18" ry="18" style=""/>
<text text-anchor="middle" x="18" y="-106.8" font-family="Times,serif" font-size="14.00" style="">0</text>
</g>
<!-- 4 -->
<g id="node3" class="node" pointer-events="visible" data-name="4">

<ellipse fill="none" stroke="black" cx="140.93" cy="-165" rx="18" ry="18" style=""/>
<text text-anchor="middle" x="140.93" y="-160.8" font-family="Times,serif" font-size="14.00" style="">4</text>
</g>
<!-- 0&#45;&gt;4 -->
<g id="edge1" class="edge" data-name="0-&gt;4">

<path fill="none" stroke="black" d="M34.81,-118.06C54.91,-127.03 89.88,-142.65 113.93,-153.39" style=""/>
<polygon fill="black" stroke="black" points="112.18,-156.44 122.73,-157.32 115.03,-150.05 112.18,-156.44" style=""/>
<text text-anchor="middle" x="79.46" y="-146.2" font-family="Times,serif" font-size="14.00" style="">d</text>
</g>
<!-- 5 -->
<g id="node4" class="node" pointer-events="visible" data-name="5">

<ellipse fill="none" stroke="black" cx="140.93" cy="-57" rx="18" ry="18" style=""/>
<text text-anchor="middle" x="140.93" y="-52.8" font-family="Times,serif" font-size="14.00" style="">5</text>
</g>
<!-- 0&#45;&gt;5 -->
<g id="edge2" class="edge" data-name="0-&gt;5">

<path fill="none" stroke="black" d="M34.81,-103.94C54.91,-94.97 89.88,-79.35 113.93,-68.61" style=""/>
<polygon fill="black" stroke="black" points="115.03,-71.95 122.73,-64.68 112.18,-65.56 115.03,-71.95" style=""/>
<text text-anchor="middle" x="79.46" y="-92.2" font-family="Times,serif" font-size="14.00" style="">"."</text>
</g>
<!-- 4&#45;&gt;4 -->
<g id="edge3" class="edge" data-name="4-&gt;4">

<path fill="none" stroke="black" d="M134.49,-182.23C126,-213.46 128.14,-255 140.93,-255 152.27,-255 155.24,-222.34 149.85,-193.17" style=""/>
<polygon fill="black" stroke="black" points="153.33,-192.69 147.71,-183.71 146.5,-194.23 153.33,-192.69" style=""/>
<text text-anchor="middle" x="140.93" y="-259.2" font-family="Times,serif" font-size="14.00" style="">d</text>
</g>
<!-- 6 -->
<g id="node5" class="node" pointer-events="visible" data-name="6">

<ellipse fill="none" stroke="black" cx="263.86" cy="-112" rx="18" ry="18" style=""/>
<text text-anchor="middle" x="263.86" y="-107.8" font-family="Times,serif" font-size="14.00" style="">6</text>
</g>
<!-- 4&#45;&gt;6 -->
<g id="edge4" class="edge" data-name="4-&gt;6">

<path fill="none" stroke="black" d="M157.74,-158.07C177.75,-149.3 212.49,-134.07 236.53,-123.54" style=""/>
<polygon fill="black" stroke="black" points="237.91,-126.76 245.66,-119.54 235.1,-120.35 237.91,-126.76" style=""/>
<text text-anchor="middle" x="202.39" y="-146.2" font-family="Times,serif" font-size="14.00" style="">"."</text>
</g>
<!-- 5&#45;&gt;6 -->
<g id="edge5" class="edge" data-name="5-&gt;6">

<path fill="none" stroke="black" d="M157.74,-64.19C177.84,-73.33 212.81,-89.24 236.86,-100.17" style=""/>
<polygon fill="black" stroke="black" points="235.12,-103.23 245.67,-104.18 238.01,-96.86 235.12,-103.23" style=""/>
<text text-anchor="middle" x="202.39" y="-92.2" font-family="Times,serif" font-size="14.00" style="">d</text>
</g>
<!-- 6&#45;&gt;F -->
<g id="edge7" class="edge" data-name="6-&gt;F">

<path fill="none" stroke="black" d="M277.51,-124.47C298.81,-144.1 344.06,-180 390.08,-180 390.08,-180 390.08,-180 657.49,-180 702.21,-180 744.89,-146.88 769.85,-123" style=""/>
<polygon fill="black" stroke="black" points="772.2,-125.59 776.84,-116.07 767.27,-120.62 772.2,-125.59" style=""/>
<text text-anchor="middle" x="541.49" y="-184.2" font-family="Times,serif" font-size="14.00" style="">c - d</text>
<text text-anchor="middle" x="648.54" y="-167.4" font-family="Times,serif" font-size="14.00" style="">AS</text>
</g>
<!-- 6&#45;&gt;6 -->
<g id="edge6" class="edge" data-name="6-&gt;6">

<path fill="none" stroke="black" d="M257.42,-129.23C248.93,-160.46 251.07,-202 263.86,-202 275.2,-202 278.17,-169.34 272.78,-140.17" style=""/>
<polygon fill="black" stroke="black" points="276.26,-139.69 270.64,-130.71 269.43,-141.23 276.26,-139.69" style=""/>
<text text-anchor="middle" x="263.86" y="-206.2" font-family="Times,serif" font-size="14.00" style="">d</text>
</g>
<!-- 7 -->
<g id="node6" class="node" pointer-events="visible" data-name="7">

<ellipse fill="none" stroke="black" cx="391.08" cy="-44" rx="18" ry="18" style=""/>
<text text-anchor="middle" x="391.08" y="-39.8" font-family="Times,serif" font-size="14.00" style="">7</text>
</g>
<!-- 6&#45;&gt;7 -->
<g id="edge8" class="edge" data-name="6-&gt;7">

<path fill="none" stroke="black" d="M280.21,-103.66C301.24,-92.24 339.27,-71.59 364.6,-57.83" style=""/>
<polygon fill="black" stroke="black" points="366.15,-60.98 373.27,-53.13 362.81,-54.83 366.15,-60.98" style=""/>
<text text-anchor="middle" x="327.47" y="-87.2" font-family="Times,serif" font-size="14.00" style="">"F"</text>
</g>
<!-- 8 -->
<g id="node7" class="node" pointer-events="visible" data-name="8">

<ellipse fill="none" stroke="black" cx="541.49" cy="-18" rx="18" ry="18" style=""/>
<text text-anchor="middle" x="541.49" y="-13.8" font-family="Times,serif" font-size="14.00" style="">8</text>
</g>
<!-- 7&#45;&gt;8 -->
<g id="edge9" class="edge" data-name="7-&gt;8">

<path fill="none" stroke="black" d="M409.1,-41.02C434.37,-36.59 482.1,-28.23 512.55,-22.9" style=""/>
<polygon fill="black" stroke="black" points="512.93,-26.38 522.17,-21.21 511.72,-19.49 512.93,-26.38" style=""/>
<text text-anchor="middle" x="466.28" y="-39.2" font-family="Times,serif" font-size="14.00" style="">"+", "-"</text>
</g>
<!-- 9 -->
<g id="node8" class="node" pointer-events="visible" data-name="9">

<ellipse fill="none" stroke="black" cx="656.49" cy="-18" rx="18" ry="18" style=""/>
<text text-anchor="middle" x="656.49" y="-13.8" font-family="Times,serif" font-size="14.00" style="">9</text>
</g>
<!-- 8&#45;&gt;9 -->
<g id="edge10" class="edge" data-name="8-&gt;9">

<path fill="none" stroke="black" d="M559.65,-18C577.49,-18 605.71,-18 626.92,-18" style=""/>
<polygon fill="black" stroke="black" points="626.65,-21.5 636.65,-18 626.65,-14.5 626.65,-21.5" style=""/>
<text text-anchor="middle" x="598.99" y="-22.2" font-family="Times,serif" font-size="14.00" style="">d</text>
</g>
<!-- 9&#45;&gt;F -->
<g id="edge12" class="edge" data-name="9-&gt;F">

<path fill="none" stroke="black" d="M672.44,-26.98C694.55,-40.26 736.37,-65.37 764.31,-82.15" style=""/>
<polygon fill="black" stroke="black" points="762.24,-84.99 772.61,-87.14 765.84,-78.99 762.24,-84.99" style=""/>
<text text-anchor="middle" x="722.93" y="-68.2" font-family="Times,serif" font-size="14.00" style="">c - d</text>
<text text-anchor="middle" x="714.32" y="-44.9" font-family="Times,serif" font-size="14.00" style="">AS</text>
</g>
<!-- 9&#45;&gt;9 -->
<g id="edge11" class="edge" data-name="9-&gt;9">

<path fill="none" stroke="black" d="M650.47,-35.23C642.52,-66.46 644.53,-108 656.49,-108 667.1,-108 669.88,-75.34 664.84,-46.17" style=""/>
<polygon fill="black" stroke="black" points="668.33,-45.77 662.83,-36.71 661.48,-47.22 668.33,-45.77" style=""/>
<text text-anchor="middle" x="656.49" y="-112.2" font-family="Times,serif" font-size="14.00" style="">d</text>
</g>
</g>
</svg>