<?xml version="1.0" standalone="no"?>
<svg xmlns="http://www.w3.org/2000/svg" xmlns:xlink="http://www.w3.org/1999/xlink" width="497pt" height="625pt" viewBox="0.00 0.00 497.18 624.80">
<g id="graph0" class="graph" transform="translate(4,620.7999877929688) scale(1)" data-name="DFA">

<polygon fill="white" stroke="none" points="-4,4 -4,-620.8 493.18,-620.8 493.18,4 -4,4" style=""/>
<!-- F -->
<g id="node1" class="node" pointer-events="visible" data-name="F">

<ellipse fill="none" stroke="black" cx="454.73" cy="-341" rx="18" ry="18" style=""/>
<ellipse fill="none" stroke="black" cx="454.73" cy="-341" rx="22" ry="22" style=""/>
<text text-anchor="middle" x="454.73" y="-336.8" font-family="Times,serif" font-size="14.00" style="">F</text>
</g>
<!-- 0 -->
<g id="node2" class="node" pointer-events="visible" data-name="0">

<ellipse fill="none" stroke="black" cx="18" cy="-341" rx="18" ry="18" style=""/>
<text text-anchor="middle" x="18" y="-336.8" font-family="Times,serif" font-size="14.00" style="">0</text>
</g>
<!-- 15 -->
<g id="node3" class="node" pointer-events="visible" data-name="15">

<ellipse fill="none" stroke="black" cx="256.69" cy="-341" rx="20.89" ry="20.89" style=""/>
<text text-anchor="middle" x="256.69" y="-336.8" font-family="Times,serif" font-size="14.00" style="">15</text>
</g>
<!-- 0&#45;&gt;15 -->
<g id="edge1" class="edge" data-name="0-&gt;15">

<path fill="none" stroke="black" d="M20.31,-359.3C24.3,-409.43 38.2,-547.02 72,-574 116.46,-609.49 155.34,-609.24 200,-574 231.24,-549.34 246.9,-431.33 252.81,-373.32" style=""/>
<polygon fill="black" stroke="black" points="256.29,-373.71 253.78,-363.42 249.32,-373.03 256.29,-373.71" style=""/>
<text text-anchor="middle" x="136" y="-604.2" font-family="Times,serif" font-size="14.00" style="">L</text>
<text text-anchor="middle" x="266.38" y="-366.11" font-family="Times,serif" font-size="14.00" style="">AS1</text>
</g>
<!-- 0&#45;&gt;15 -->
<g id="edge4" class="edge" data-name="0-&gt;15">

<path fill="none" stroke="black" d="M28.41,-356.17C37.65,-369.49 53.08,-387.96 72,-396 124.35,-418.26 147.37,-417.61 200,-396 214.68,-389.97 227.56,-378 237.22,-366.76" style=""/>
<polygon fill="black" stroke="black" points="239.76,-369.19 243.3,-359.21 234.3,-364.8 239.76,-369.19" style=""/>
<text text-anchor="middle" x="136" y="-416.2" font-family="Times,serif" font-size="14.00" style="">L</text>
<text text-anchor="middle" x="224.49" y="-350.75" font-family="Times,serif" font-size="14.00" style="">AS1</text>
</g>
<!-- 0&#45;&gt;15 -->
<g id="edge5" class="edge" data-name="0-&gt;15">

<path fill="none" stroke="black" d="M36.4,-341C76.05,-341 173.56,-341 224.13,-341" style=""/>
<polygon fill="black" stroke="black" points="224.11,-344.5 234.11,-341 224.11,-337.5 224.11,-344.5" style=""/>
<text text-anchor="start" x="132.22" y="-360.4" font-family="Times,serif" font-size="14.00" style="">L</text>
<text text-anchor="start" x="127.61" y="-346" font-family="Times,serif" font-size="10.00" style="">AS1</text>
</g>
<!-- 0&#45;&gt;15 -->
<g id="edge6" class="edge" data-name="0-&gt;15">

<path fill="none" stroke="black" d="M34.41,-333.01C51.94,-324.42 81.66,-311.3 109,-306.2 132.59,-301.8 139.39,-301.91 163,-306.2 185.27,-310.24 209.15,-319.33 227.1,-327.21" style=""/>
<polygon fill="black" stroke="black" points="225.51,-330.33 236.06,-331.27 228.4,-323.96 225.51,-330.33" style=""/>
<text text-anchor="middle" x="136" y="-310.2" font-family="Times,serif" font-size="14.00" style="">L</text>
</g>
<!-- x1 -->
<g id="node4" class="node" pointer-events="visible" data-name="x1">

<text text-anchor="middle" x="136" y="-13.8" font-family="Times,serif" font-size="14.00" style="">AS1</text>
</g>
<!-- 0&#45;&gt;x1 -->
<!-- 15&#45;&gt;F -->
<g id="edge3" class="edge" data-name="15-&gt;F">

<path fill="none" stroke="black" d="M277.93,-341C311.78,-341 380.18,-341 420.96,-341" style=""/>
<polygon fill="black" stroke="black" points="420.9,-344.5 430.9,-341 420.9,-337.5 420.9,-344.5" style=""/>
<text text-anchor="middle" x="355.06" y="-362" font-family="Times,serif" font-size="14.00" style="">c - L - d - "%" </text>
<text text-anchor="middle" x="355.06" y="-345.2" font-family="Times,serif" font-size="14.00" style=""> AS#</text>
<text text-anchor="middle" x="342.47" y="-328.4" font-family="Times,serif" font-size="14.00" style="">AS3</text>
</g>
<!-- 15&#45;&gt;15 -->
<g id="edge2" class="edge" data-name="15-&gt;15">

<path fill="none" stroke="black" d="M250.16,-361.03C242.9,-392.9 245.08,-433.69 256.69,-433.69 266.99,-433.69 269.87,-401.62 265.33,-372.13" style=""/>
<polygon fill="black" stroke="black" points="268.81,-371.69 263.51,-362.51 261.93,-372.99 268.81,-371.69" style=""/>
<text text-anchor="middle" x="256.69" y="-454.69" font-family="Times,serif" font-size="14.00" style="">L, d, "%" </text>
<text text-anchor="middle" x="256.69" y="-437.89" font-family="Times,serif" font-size="14.00" style="">AS2</text>
</g>
<!-- x1&#45;&gt;15 -->
<g id="edge8" class="edge" data-name="x1-&gt;15">

<path fill="none" stroke="black" stroke-dasharray="1,5" d="M149.56,-35.74C163.62,-56.34 186.24,-91.73 200,-125 228.42,-193.71 245.54,-280.85 252.32,-320.13" style=""/>
</g>
</g>
</svg>