<?xml version="1.0" standalone="no"?>
<svg xmlns="http://www.w3.org/2000/svg" xmlns:xlink="http://www.w3.org/1999/xlink" width="395pt" height="143pt" viewBox="0.00 0.00 395.43 143.49">
<g id="graph0" class="graph" transform="translate(4,139.49000549316406) scale(1)" data-name="DFA">

<polygon fill="white" stroke="none" points="-4,4 -4,-139.49 391.43,-139.49 391.43,4 -4,4" style=""/>
<!-- F -->
<g id="node1" class="node" pointer-events="visible" data-name="F">

<ellipse fill="none" stroke="black" cx="365.43" cy="-104.69" rx="18" ry="18" style=""/>
<ellipse fill="none" stroke="black" cx="365.43" cy="-104.69" rx="22" ry="22" style=""/>
<text text-anchor="middle" x="365.43" y="-100.49" font-family="Times,serif" font-size="14.00" style="">F</text>
</g>
<!-- start -->
<g id="node2" class="node" pointer-events="visible" data-name="start">

<ellipse fill="black" stroke="black" cx="1.8" cy="-79.69" rx="1.8" ry="1.8" style=""/>
</g>
<!-- start&#45;&gt;F -->
<g id="edge5" class="edge" data-name="start-&gt;F">

<path fill="none" stroke="black" d="M3.61,-81.08C5.91,-84.87 12.86,-95.47 21.6,-100.69 36.25,-109.45 42.03,-107.31 58.93,-109.69 159.94,-123.94 186.24,-117.47 288.23,-119.69 304.76,-120.05 309.18,-122.71 325.43,-119.69 328.3,-119.16 331.24,-118.42 334.14,-117.56" style=""/>
<polygon fill="black" stroke="black" points="335.28,-120.87 343.57,-114.27 332.98,-114.26 335.28,-120.87" style=""/>
<text text-anchor="middle" x="164.58" y="-122.89" font-family="Times,serif" font-size="14.00" style="">"+", "*", "/", "(", ")", "{", "}", "_", ";"</text>
</g>
<!-- 13 -->
<g id="node3" class="node" pointer-events="visible" data-name="13">

<ellipse fill="none" stroke="black" cx="164.58" cy="-79.69" rx="20.89" ry="20.89" style=""/>
<text text-anchor="middle" x="164.58" y="-75.49" font-family="Times,serif" font-size="14.00" style="">13</text>
</g>
<!-- start&#45;&gt;13 -->
<g id="edge1" class="edge" data-name="start-&gt;13">

<path fill="none" stroke="black" d="M3.83,-79.69C13.43,-79.69 88.2,-79.69 131.96,-79.69" style=""/>
<polygon fill="black" stroke="black" points="131.89,-83.19 141.89,-79.69 131.89,-76.19 131.89,-83.19" style=""/>
<text text-anchor="middle" x="31.26" y="-83.89" font-family="Times,serif" font-size="14.00" style="">"-"</text>
</g>
<!-- 14 -->
<g id="node4" class="node" pointer-events="visible" data-name="14">

<ellipse fill="none" stroke="black" cx="164.58" cy="-20.69" rx="20.89" ry="20.89" style=""/>
<text text-anchor="middle" x="164.58" y="-16.49" font-family="Times,serif" font-size="14.00" style="">14</text>
</g>
<!-- start&#45;&gt;14 -->
<g id="edge4" class="edge" data-name="start-&gt;14">

<path fill="none" stroke="black" d="M3.62,-78.33C5.95,-74.61 12.97,-64.18 21.6,-58.89 56,-37.83 102.03,-28.22 132.22,-23.94" style=""/>
<polygon fill="black" stroke="black" points="132.38,-27.45 141.85,-22.7 131.48,-20.51 132.38,-27.45" style=""/>
<text text-anchor="middle" x="31.26" y="-62.89" font-family="Times,serif" font-size="14.00" style="">"="</text>
</g>
<!-- 13&#45;&gt;F -->
<g id="edge2" class="edge" data-name="13-&gt;F">

<path fill="none" stroke="black" d="M185.74,-82.23C220.16,-86.56 290.54,-95.4 331.96,-100.61" style=""/>
<polygon fill="black" stroke="black" points="331.46,-104.08 341.82,-101.85 332.33,-97.13 331.46,-104.08" style=""/>
<text text-anchor="middle" x="306.83" y="-102.89" font-family="Times,serif" font-size="14.00" style="">"&gt;"</text>
</g>
<!-- 13&#45;&gt;F -->
<g id="edge3" class="edge" data-name="13-&gt;F">

<path fill="none" stroke="black" d="M185.2,-74.54C216.03,-67.41 277.29,-57.18 325.43,-73.89 330.76,-75.74 335.9,-78.65 340.61,-81.96" style=""/>
<polygon fill="black" stroke="black" points="338.4,-84.68 348.41,-88.16 342.76,-79.2 338.4,-84.68" style=""/>
<text text-anchor="middle" x="306.83" y="-77.89" font-family="Times,serif" font-size="14.00" style="">c - "&gt;"</text>
</g>
</g>
</svg>