<?xml version="1.0" standalone="no"?>
<svg xmlns="http://www.w3.org/2000/svg" xmlns:xlink="http://www.w3.org/1999/xlink" width="227pt" height="85pt" viewBox="0.00 0.00 227.04 85.49">
<g id="graph0" class="graph" transform="translate(4,81.48999786376953) scale(1)" data-name="DFA">

<polygon fill="white" stroke="none" points="-4,4 -4,-81.49 223.04,-81.49 223.04,4 -4,4" style=""/>
<!-- F -->
<g id="node1" class="node" pointer-events="visible" data-name="F">

<ellipse fill="none" stroke="black" cx="197.04" cy="-22" rx="18" ry="18" style=""/>
<ellipse fill="none" stroke="black" cx="197.04" cy="-22" rx="22" ry="22" style=""/>
<text text-anchor="middle" x="197.04" y="-17.8" font-family="Times,serif" font-size="14.00" style="">F</text>
</g>
<!-- 0 -->
<g id="node2" class="node" pointer-events="visible" data-name="0">

<ellipse fill="none" stroke="black" cx="18" cy="-22" rx="18" ry="18" style=""/>
<text text-anchor="middle" x="18" y="-17.8" font-family="Times,serif" font-size="14.00" style="">0</text>
</g>
<!-- 12 -->
<g id="node3" class="node" pointer-events="visible" data-name="12">

<ellipse fill="none" stroke="black" cx="96.58" cy="-22" rx="20.89" ry="20.89" style=""/>
<text text-anchor="middle" x="96.58" y="-17.8" font-family="Times,serif" font-size="14.00" style="">12</text>
</g>
<!-- 0&#45;&gt;12 -->
<g id="edge1" class="edge" data-name="0-&gt;12">

<path fill="none" stroke="black" d="M36.38,-22C44.51,-22 54.45,-22 63.85,-22" style=""/>
<polygon fill="black" stroke="black" points="63.78,-25.5 73.78,-22 63.78,-18.5 63.78,-25.5" style=""/>
<text text-anchor="middle" x="55.94" y="-26.2" font-family="Times,serif" font-size="14.00" style="">l</text>
</g>
<!-- 12&#45;&gt;F -->
<g id="edge3" class="edge" data-name="12-&gt;F">

<path fill="none" stroke="black" d="M117.51,-22C130.76,-22 148.47,-22 163.72,-22" style=""/>
<polygon fill="black" stroke="black" points="163.27,-25.5 173.27,-22 163.27,-18.5 163.27,-25.5" style=""/>
<text text-anchor="middle" x="146.16" y="-26.2" font-family="Times,serif" font-size="14.00" style="">c - l</text>
<text text-anchor="middle" x="165.84" y="-9.4" font-family="Times,serif" font-size="14.00" style="">AS</text>
</g>
<!-- 12&#45;&gt;12 -->
<g id="edge2" class="edge" data-name="12-&gt;12">

<path fill="none" stroke="black" d="M89.19,-41.91C88.17,-51.84 90.63,-60.69 96.58,-60.69 100.02,-60.69 102.3,-57.73 103.41,-53.32" style=""/>
<polygon fill="black" stroke="black" points="106.9,-53.58 103.9,-43.42 99.91,-53.23 106.9,-53.58" style=""/>
<text text-anchor="middle" x="96.58" y="-64.89" font-family="Times,serif" font-size="14.00" style="">l</text>
</g>
</g>
</svg>