<?xml version="1.0" standalone="no"?>
<svg xmlns="http://www.w3.org/2000/svg" xmlns:xlink="http://www.w3.org/1999/xlink" width="408pt" height="139pt" viewBox="0.00 0.00 407.54 139.49">
<g id="graph0" class="graph" transform="translate(4,135.49000549316406) scale(1)" data-name="DFA">

<polygon fill="white" stroke="none" points="-4,4 -4,-135.49 403.54,-135.49 403.54,4 -4,4" style=""/>
<!-- F -->
<g id="node1" class="node" pointer-events="visible" data-name="F">

<ellipse fill="none" stroke="black" cx="377.54" cy="-22" rx="18" ry="18" style=""/>
<ellipse fill="none" stroke="black" cx="377.54" cy="-22" rx="22" ry="22" style=""/>
<text text-anchor="middle" x="377.54" y="-17.8" font-family="Times,serif" font-size="14.00" style="">F</text>
</g>
<!-- 0 -->
<g id="node2" class="node" pointer-events="visible" data-name="0">

<ellipse fill="none" stroke="black" cx="18" cy="-22" rx="18" ry="18" style=""/>
<text text-anchor="middle" x="18" y="-17.8" font-family="Times,serif" font-size="14.00" style="">0</text>
</g>
<!-- 10 -->
<g id="node3" class="node" pointer-events="visible" data-name="10">

<ellipse fill="none" stroke="black" cx="134.41" cy="-22" rx="20.89" ry="20.89" style=""/>
<text text-anchor="middle" x="134.41" y="-17.8" font-family="Times,serif" font-size="14.00" style="">10</text>
</g>
<!-- 0&#45;&gt;10 -->
<g id="edge1" class="edge" data-name="0-&gt;10">

<path fill="none" stroke="black" d="M36.38,-22C53.7,-22 80.7,-22 101.83,-22" style=""/>
<polygon fill="black" stroke="black" points="101.65,-25.5 111.65,-22 101.65,-18.5 101.65,-25.5" style=""/>
<text text-anchor="middle" x="74.86" y="-26.2" font-family="Times,serif" font-size="14.00" style="">"</text>
</g>
<!-- 10&#45;&gt;10 -->
<g id="edge2" class="edge" data-name="10-&gt;10">

<path fill="none" stroke="black" d="M127.6,-42.03C120.04,-73.9 122.31,-114.69 134.41,-114.69 145.13,-114.69 148.13,-82.62 143.4,-53.13" style=""/>
<polygon fill="black" stroke="black" points="146.88,-52.65 141.51,-43.51 140.01,-54 146.88,-52.65" style=""/>
<text text-anchor="middle" x="134.41" y="-118.89" font-family="Times,serif" font-size="14.00" style="">L, l</text>
</g>
<!-- 11 -->
<g id="node4" class="node" pointer-events="visible" data-name="11">

<ellipse fill="none" stroke="black" cx="253.51" cy="-22" rx="20.89" ry="20.89" style=""/>
<text text-anchor="middle" x="253.51" y="-17.8" font-family="Times,serif" font-size="14.00" style="">11</text>
</g>
<!-- 10&#45;&gt;11 -->
<g id="edge3" class="edge" data-name="10-&gt;11">

<path fill="none" stroke="black" d="M155.54,-22C173.47,-22 200,-22 220.79,-22" style=""/>
<polygon fill="black" stroke="black" points="220.74,-25.5 230.74,-22 220.74,-18.5 220.74,-25.5" style=""/>
<text text-anchor="middle" x="193.96" y="-26.2" font-family="Times,serif" font-size="14.00" style="">"</text>
</g>
<!-- 11&#45;&gt;F -->
<g id="edge4" class="edge" data-name="11-&gt;F">

<path fill="none" stroke="black" d="M274.66,-22C293.4,-22 321.64,-22 343.65,-22" style=""/>
<polygon fill="black" stroke="black" points="343.61,-25.5 353.61,-22 343.61,-18.5 343.61,-25.5" style=""/>
<text text-anchor="middle" x="314.87" y="-26.2" font-family="Times,serif" font-size="14.00" style="">C</text>
</g>
</g>
</svg>