<?xml version="1.0" standalone="no"?>
<svg xmlns="http://www.w3.org/2000/svg" xmlns:xlink="http://www.w3.org/1999/xlink" width="391pt" height="83pt" viewBox="0.00 0.00 390.85 82.80">
<g id="graph0" class="graph" transform="translate(4,78.80000305175781) scale(1)" data-name="DFA">

<polygon fill="white" stroke="none" points="-4,4 -4,-78.8 386.85,-78.8 386.85,4 -4,4" style=""/>
<!-- F -->
<g id="node1" class="node" pointer-events="visible" data-name="F">

<ellipse fill="none" stroke="black" cx="360.85" cy="-22" rx="18" ry="18" style=""/>
<ellipse fill="none" stroke="black" cx="360.85" cy="-22" rx="22" ry="22" style=""/>
<text text-anchor="middle" x="360.85" y="-17.8" font-family="Times,serif" font-size="14.00" style="">F</text>
</g>
<!-- 0 -->
<g id="node2" class="node" pointer-events="visible" data-name="0">

<ellipse fill="none" stroke="black" cx="18" cy="-22" rx="18" ry="18" style=""/>
<text text-anchor="middle" x="18" y="-17.8" font-family="Times,serif" font-size="14.00" style="">0</text>
</g>
<!-- 1 -->
<g id="node3" class="node" pointer-events="visible" data-name="1">

<ellipse fill="none" stroke="black" cx="97" cy="-22" rx="18" ry="18" style=""/>
<text text-anchor="middle" x="97" y="-17.8" font-family="Times,serif" font-size="14.00" style="">1</text>
</g>
<!-- 0&#45;&gt;1 -->
<g id="edge1" class="edge" data-name="0-&gt;1">

<path fill="none" stroke="black" d="M36.47,-22C45.53,-22 56.83,-22 67.14,-22" style=""/>
<polygon fill="black" stroke="black" points="67.08,-25.5 77.08,-22 67.08,-18.5 67.08,-25.5" style=""/>
<text text-anchor="middle" x="57.5" y="-26.2" font-family="Times,serif" font-size="14.00" style="">d</text>
</g>
<!-- 1&#45;&gt;1 -->
<g id="edge2" class="edge" data-name="1-&gt;1">

<path fill="none" stroke="black" d="M90,-39.04C88.57,-48.86 90.91,-58 97,-58 100.52,-58 102.79,-54.94 103.8,-50.47" style=""/>
<polygon fill="black" stroke="black" points="107.3,-50.61 103.97,-40.55 100.3,-50.49 107.3,-50.61" style=""/>
<text text-anchor="middle" x="97" y="-62.2" font-family="Times,serif" font-size="14.00" style="">d</text>
</g>
<!-- 2 -->
<g id="node4" class="node" pointer-events="visible" data-name="2">

<ellipse fill="none" stroke="black" cx="190.54" cy="-22" rx="18" ry="18" style=""/>
<text text-anchor="middle" x="190.54" y="-17.8" font-family="Times,serif" font-size="14.00" style="">2</text>
</g>
<!-- 1&#45;&gt;2 -->
<g id="edge3" class="edge" data-name="1-&gt;2">

<path fill="none" stroke="black" d="M115.22,-22C128.05,-22 145.87,-22 160.84,-22" style=""/>
<polygon fill="black" stroke="black" points="160.57,-25.5 170.57,-22 160.57,-18.5 160.57,-25.5" style=""/>
<text text-anchor="middle" x="143.77" y="-26.2" font-family="Times,serif" font-size="14.00" style="">"U"</text>
</g>
<!-- 3 -->
<g id="node5" class="node" pointer-events="visible" data-name="3">

<ellipse fill="none" stroke="black" cx="278.63" cy="-22" rx="18" ry="18" style=""/>
<text text-anchor="middle" x="278.63" y="-17.8" font-family="Times,serif" font-size="14.00" style="">3</text>
</g>
<!-- 2&#45;&gt;3 -->
<g id="edge4" class="edge" data-name="2-&gt;3">

<path fill="none" stroke="black" d="M208.96,-22C220.4,-22 235.63,-22 248.84,-22" style=""/>
<polygon fill="black" stroke="black" points="248.72,-25.5 258.72,-22 248.72,-18.5 248.72,-25.5" style=""/>
<text text-anchor="middle" x="234.59" y="-26.2" font-family="Times,serif" font-size="14.00" style="">"I"</text>
</g>
<!-- 3&#45;&gt;F -->
<g id="edge5" class="edge" data-name="3-&gt;F">

<path fill="none" stroke="black" d="M297.04,-22C305.88,-22 316.91,-22 327.25,-22" style=""/>
<polygon fill="black" stroke="black" points="326.96,-25.5 336.96,-22 326.96,-18.5 326.96,-25.5" style=""/>
<text text-anchor="middle" x="317.74" y="-26.2" font-family="Times,serif" font-size="14.00" style="">c</text>
</g>
</g>
</svg>