<?xml version="1.0" encoding="UTF-8" standalone="no"?>
<!DOCTYPE svg PUBLIC "-//W3C//DTD SVG 1.1//EN"
 "http://www.w3.org/Graphics/SVG/1.1/DTD/svg11.dtd">
<!-- Generated by graphviz version 2.42.4 (0)
 -->
<!-- Title: DFA Pages: 1 -->
<svg width="856pt" height="277pt"
 viewBox="0.00 0.00 856.00 277.00" xmlns="http://www.w3.org/2000/svg" xmlns:xlink="http://www.w3.org/1999/xlink">
<g id="graph0" class="graph" transform="scale(1 1) rotate(0) translate(4 273)">
<title>DFA</title>
<polygon fill="white" stroke="transparent" points="-4,4 -4,-273 852,-273 852,4 -4,4"/>
<!-- F -->
<g id="node1" class="node">
<title>F</title>
<ellipse fill="none" stroke="black" cx="826" cy="-100" rx="18" ry="18"/>
<ellipse fill="none" stroke="black" cx="826" cy="-100" rx="22" ry="22"/>
<text text-anchor="middle" x="826" y="-96.3" font-family="Times,serif" font-size="14.00">F</text>
</g>
<!-- 0 -->
<g id="node2" class="node">
<title>0</title>
<ellipse fill="none" stroke="black" cx="18" cy="-110" rx="18" ry="18"/>
<text text-anchor="middle" x="18" y="-106.3" font-family="Times,serif" font-size="14.00">0</text>
</g>
<!-- 4 -->
<g id="node3" class="node">
<title>4</title>
<ellipse fill="none" stroke="black" cx="145" cy="-164" rx="18" ry="18"/>
<text text-anchor="middle" x="145" y="-160.3" font-family="Times,serif" font-size="14.00">4</text>
</g>
<!-- 0&#45;&gt;4 -->
<g id="edge1" class="edge">
<title>0&#45;&gt;4</title>
<path fill="none" stroke="black" d="M34.83,-116.84C56.06,-126.01 93.97,-142.39 119.05,-153.22"/>
<polygon fill="black" stroke="black" points="117.73,-156.46 128.3,-157.22 120.51,-150.04 117.73,-156.46"/>
<text text-anchor="middle" x="81.5" y="-143.8" font-family="Times,serif" font-size="14.00">d</text>
</g>
<!-- 5 -->
<g id="node4" class="node">
<title>5</title>
<ellipse fill="none" stroke="black" cx="145" cy="-56" rx="18" ry="18"/>
<text text-anchor="middle" x="145" y="-52.3" font-family="Times,serif" font-size="14.00">5</text>
</g>
<!-- 0&#45;&gt;5 -->
<g id="edge2" class="edge">
<title>0&#45;&gt;5</title>
<path fill="none" stroke="black" d="M34.83,-103.16C56.06,-93.99 93.97,-77.61 119.05,-66.78"/>
<polygon fill="black" stroke="black" points="120.51,-69.96 128.3,-62.78 117.73,-63.54 120.51,-69.96"/>
<text text-anchor="middle" x="81.5" y="-89.8" font-family="Times,serif" font-size="14.00">&quot;.&quot;</text>
</g>
<!-- 4&#45;&gt;4 -->
<g id="edge3" class="edge">
<title>4&#45;&gt;4</title>
<path fill="none" stroke="black" d="M138.5,-181.23C129.94,-212.46 132.1,-254 145,-254 156.59,-254 159.51,-220.47 153.78,-191.01"/>
<polygon fill="black" stroke="black" points="157.18,-190.18 151.5,-181.23 150.36,-191.76 157.18,-190.18"/>
<text text-anchor="middle" x="145" y="-257.8" font-family="Times,serif" font-size="14.00">d</text>
</g>
<!-- 6 -->
<g id="node5" class="node">
<title>6</title>
<ellipse fill="none" stroke="black" cx="272" cy="-112" rx="18" ry="18"/>
<text text-anchor="middle" x="272" y="-108.3" font-family="Times,serif" font-size="14.00">6</text>
</g>
<!-- 4&#45;&gt;6 -->
<g id="edge4" class="edge">
<title>4&#45;&gt;6</title>
<path fill="none" stroke="black" d="M161.83,-157.41C182.94,-148.63 220.56,-132.98 245.64,-122.55"/>
<polygon fill="black" stroke="black" points="247.01,-125.77 254.9,-118.7 244.33,-119.31 247.01,-125.77"/>
<text text-anchor="middle" x="208.5" y="-144.8" font-family="Times,serif" font-size="14.00">&quot;.&quot;</text>
</g>
<!-- 5&#45;&gt;6 -->
<g id="edge5" class="edge">
<title>5&#45;&gt;6</title>
<path fill="none" stroke="black" d="M161.83,-63.09C183.06,-72.6 220.97,-89.59 246.05,-100.82"/>
<polygon fill="black" stroke="black" points="244.74,-104.07 255.3,-104.97 247.6,-97.68 244.74,-104.07"/>
<text text-anchor="middle" x="208.5" y="-90.8" font-family="Times,serif" font-size="14.00">d</text>
</g>
<!-- 6&#45;&gt;F -->
<g id="edge7" class="edge">
<title>6&#45;&gt;F</title>
<path fill="none" stroke="black" d="M285.86,-124.16C307.96,-143.72 355.37,-180 403,-180 403,-180 403,-180 684,-180 730.93,-180 776.55,-146.06 802.65,-122.39"/>
<polygon fill="black" stroke="black" points="805.19,-124.81 810.1,-115.42 800.41,-119.7 805.19,-124.81"/>
<text text-anchor="middle" x="565" y="-183.8" font-family="Times,serif" font-size="14.00">c &#45; d</text>
<text text-anchor="middle" x="674" y="-168.8" font-family="Times,serif" font-size="14.00">AS</text>
</g>
<!-- 6&#45;&gt;6 -->
<g id="edge6" class="edge">
<title>6&#45;&gt;6</title>
<path fill="none" stroke="black" d="M265.5,-129.23C256.94,-160.46 259.1,-202 272,-202 283.59,-202 286.51,-168.47 280.78,-139.01"/>
<polygon fill="black" stroke="black" points="284.18,-138.18 278.5,-129.23 277.36,-139.76 284.18,-138.18"/>
<text text-anchor="middle" x="272" y="-205.8" font-family="Times,serif" font-size="14.00">d</text>
</g>
<!-- 7 -->
<g id="node6" class="node">
<title>7</title>
<ellipse fill="none" stroke="black" cx="404" cy="-44" rx="18" ry="18"/>
<text text-anchor="middle" x="404" y="-40.3" font-family="Times,serif" font-size="14.00">7</text>
</g>
<!-- 6&#45;&gt;7 -->
<g id="edge8" class="edge">
<title>6&#45;&gt;7</title>
<path fill="none" stroke="black" d="M288.17,-104.07C310.36,-92.46 351.91,-70.72 378.48,-56.83"/>
<polygon fill="black" stroke="black" points="380.29,-59.83 387.53,-52.09 377.04,-53.63 380.29,-59.83"/>
<text text-anchor="middle" x="338" y="-87.8" font-family="Times,serif" font-size="14.00">&quot;F&quot;</text>
</g>
<!-- 8 -->
<g id="node7" class="node">
<title>8</title>
<ellipse fill="none" stroke="black" cx="565" cy="-18" rx="18" ry="18"/>
<text text-anchor="middle" x="565" y="-14.3" font-family="Times,serif" font-size="14.00">8</text>
</g>
<!-- 7&#45;&gt;8 -->
<g id="edge9" class="edge">
<title>7&#45;&gt;8</title>
<path fill="none" stroke="black" d="M422.02,-41.22C449.51,-36.72 503.94,-27.82 536.84,-22.44"/>
<polygon fill="black" stroke="black" points="537.8,-25.83 547.11,-20.76 536.67,-18.92 537.8,-25.83"/>
<text text-anchor="middle" x="484.5" y="-38.8" font-family="Times,serif" font-size="14.00">&quot;+&quot;, &quot;&#45;&quot;</text>
</g>
<!-- 9 -->
<g id="node8" class="node">
<title>9</title>
<ellipse fill="none" stroke="black" cx="683" cy="-20" rx="18" ry="18"/>
<text text-anchor="middle" x="683" y="-16.3" font-family="Times,serif" font-size="14.00">9</text>
</g>
<!-- 8&#45;&gt;9 -->
<g id="edge10" class="edge">
<title>8&#45;&gt;9</title>
<path fill="none" stroke="black" d="M583.12,-18.3C601.96,-18.62 632.53,-19.15 654.7,-19.53"/>
<polygon fill="black" stroke="black" points="654.75,-23.03 664.81,-19.7 654.88,-16.03 654.75,-23.03"/>
<text text-anchor="middle" x="624" y="-23.8" font-family="Times,serif" font-size="14.00">d</text>
</g>
<!-- 9&#45;&gt;F -->
<g id="edge12" class="edge">
<title>9&#45;&gt;F</title>
<path fill="none" stroke="black" d="M699.09,-28.56C722.55,-41.87 768.13,-67.74 797.54,-84.42"/>
<polygon fill="black" stroke="black" points="796.04,-87.59 806.47,-89.48 799.5,-81.51 796.04,-87.59"/>
<text text-anchor="middle" x="752.5" y="-70.8" font-family="Times,serif" font-size="14.00">c &#45; d</text>
<text text-anchor="middle" x="742.44" y="-47.63" font-family="Times,serif" font-size="14.00">AS</text>
</g>
<!-- 9&#45;&gt;9 -->
<g id="edge11" class="edge">
<title>9&#45;&gt;9</title>
<path fill="none" stroke="black" d="M676.92,-37.23C668.91,-68.46 670.94,-110 683,-110 693.84,-110 696.58,-76.47 691.21,-47.01"/>
<polygon fill="black" stroke="black" points="694.63,-46.26 689.08,-37.23 687.79,-47.75 694.63,-46.26"/>
<text text-anchor="middle" x="683" y="-113.8" font-family="Times,serif" font-size="14.00">d</text>
</g>
</g>
</svg>
