<?xml version="1.0" encoding="UTF-8" standalone="no"?>
<!DOCTYPE svg PUBLIC "-//W3C//DTD SVG 1.1//EN"
 "http://www.w3.org/Graphics/SVG/1.1/DTD/svg11.dtd">
<!-- Generated by graphviz version 2.42.4 (0)
 -->
<!-- Title: DFA Pages: 1 -->
<svg width="788pt" height="187pt"
 viewBox="0.00 0.00 788.00 187.00" xmlns="http://www.w3.org/2000/svg" xmlns:xlink="http://www.w3.org/1999/xlink">
<g id="graph0" class="graph" transform="scale(1 1) rotate(0) translate(4 183)">
<title>DFA</title>
<polygon fill="white" stroke="transparent" points="-4,4 -4,-183 784,-183 784,4 -4,4"/>
<!-- F -->
<g id="node1" class="node">
<title>F</title>
<ellipse fill="none" stroke="black" cx="758" cy="-65" rx="18" ry="18"/>
<ellipse fill="none" stroke="black" cx="758" cy="-65" rx="22" ry="22"/>
<text text-anchor="middle" x="758" y="-61.3" font-family="Times,serif" font-size="14.00">F</text>
</g>
<!-- 0 -->
<g id="node2" class="node">
<title>0</title>
<ellipse fill="none" stroke="black" cx="18" cy="-85" rx="18" ry="18"/>
<text text-anchor="middle" x="18" y="-81.3" font-family="Times,serif" font-size="14.00">0</text>
</g>
<!-- 1 -->
<g id="node3" class="node">
<title>1</title>
<ellipse fill="none" stroke="black" cx="124" cy="-113" rx="18" ry="18"/>
<text text-anchor="middle" x="124" y="-109.3" font-family="Times,serif" font-size="14.00">1</text>
</g>
<!-- 0&#45;&gt;1 -->
<g id="edge1" class="edge">
<title>0:n&#45;&gt;1</title>
<path fill="none" stroke="black" d="M18,-104C18,-135.56 65.67,-128.67 96.77,-120.83"/>
<polygon fill="black" stroke="black" points="97.85,-124.16 106.59,-118.18 96.03,-117.4 97.85,-124.16"/>
<text text-anchor="middle" x="71" y="-145.8" font-family="Times,serif" font-size="14.00">d </text>
<text text-anchor="middle" x="71" y="-130.8" font-family="Times,serif" font-size="14.00"> AS1</text>
</g>
<!-- 3 -->
<g id="node4" class="node">
<title>3</title>
<ellipse fill="none" stroke="black" cx="124" cy="-59" rx="18" ry="18"/>
<text text-anchor="middle" x="124" y="-55.3" font-family="Times,serif" font-size="14.00">3</text>
</g>
<!-- 0&#45;&gt;3 -->
<g id="edge2" class="edge">
<title>0:s&#45;&gt;3</title>
<path fill="none" stroke="black" d="M18,-66C18,-34.48 65.67,-42.26 96.77,-50.69"/>
<polygon fill="black" stroke="black" points="96.02,-54.11 106.59,-53.52 97.95,-47.39 96.02,-54.11"/>
<text text-anchor="middle" x="71" y="-66.8" font-family="Times,serif" font-size="14.00">&quot;.&quot; </text>
<text text-anchor="middle" x="71" y="-51.8" font-family="Times,serif" font-size="14.00"> AS1</text>
</g>
<!-- 1&#45;&gt;1 -->
<g id="edge3" class="edge">
<title>1&#45;&gt;1</title>
<path fill="none" stroke="black" d="M115.02,-128.92C112.68,-139.15 115.67,-149 124,-149 129.47,-149 132.63,-144.76 133.5,-138.95"/>
<polygon fill="black" stroke="black" points="137,-138.72 132.98,-128.92 130.01,-139.09 137,-138.72"/>
<text text-anchor="middle" x="124" y="-167.8" font-family="Times,serif" font-size="14.00">d </text>
<text text-anchor="middle" x="124" y="-152.8" font-family="Times,serif" font-size="14.00"> AS2</text>
</g>
<!-- 4 -->
<g id="node5" class="node">
<title>4</title>
<ellipse fill="none" stroke="black" cx="230" cy="-85" rx="18" ry="18"/>
<text text-anchor="middle" x="230" y="-81.3" font-family="Times,serif" font-size="14.00">4</text>
</g>
<!-- 1&#45;&gt;4 -->
<g id="edge4" class="edge">
<title>1&#45;&gt;4</title>
<path fill="none" stroke="black" d="M141.71,-108.5C158.08,-104.09 183.3,-97.3 202.43,-92.15"/>
<polygon fill="black" stroke="black" points="203.59,-95.47 212.33,-89.49 201.77,-88.71 203.59,-95.47"/>
<text text-anchor="middle" x="177" y="-121.8" font-family="Times,serif" font-size="14.00">&quot;.&quot; </text>
<text text-anchor="middle" x="177" y="-106.8" font-family="Times,serif" font-size="14.00"> AS2</text>
</g>
<!-- 3&#45;&gt;4 -->
<g id="edge5" class="edge">
<title>3&#45;&gt;4</title>
<path fill="none" stroke="black" d="M141.91,-56.49C156.17,-55.01 176.93,-54.39 194,-60 198.89,-61.61 203.68,-64.16 208.07,-67.03"/>
<polygon fill="black" stroke="black" points="206.3,-70.07 216.43,-73.17 210.44,-64.43 206.3,-70.07"/>
<text text-anchor="middle" x="177" y="-78.8" font-family="Times,serif" font-size="14.00">d </text>
<text text-anchor="middle" x="177" y="-63.8" font-family="Times,serif" font-size="14.00"> AS2</text>
</g>
<!-- 4&#45;&gt;F -->
<g id="edge7" class="edge">
<title>4&#45;&gt;F</title>
<path fill="none" stroke="black" d="M246.88,-91.81C267,-99.81 302.91,-112 335,-112 335,-112 335,-112 610,-112 659.27,-112 672.07,-104.84 718,-87 721.99,-85.45 726.08,-83.54 730.02,-81.51"/>
<polygon fill="black" stroke="black" points="731.81,-84.53 738.89,-76.64 728.44,-78.39 731.81,-84.53"/>
<text text-anchor="middle" x="484.5" y="-130.8" font-family="Times,serif" font-size="14.00">c &#45; d </text>
<text text-anchor="middle" x="484.5" y="-115.8" font-family="Times,serif" font-size="14.00"> AS3, ASR</text>
</g>
<!-- 4&#45;&gt;4 -->
<g id="edge6" class="edge">
<title>4&#45;&gt;4</title>
<path fill="none" stroke="black" d="M221.02,-100.92C218.68,-111.15 221.67,-121 230,-121 235.47,-121 238.63,-116.76 239.5,-110.95"/>
<polygon fill="black" stroke="black" points="243,-110.72 238.98,-100.92 236.01,-111.09 243,-110.72"/>
<text text-anchor="middle" x="230" y="-139.8" font-family="Times,serif" font-size="14.00">d </text>
<text text-anchor="middle" x="230" y="-124.8" font-family="Times,serif" font-size="14.00"> AS2</text>
</g>
<!-- 5 -->
<g id="node6" class="node">
<title>5</title>
<ellipse fill="none" stroke="black" cx="336" cy="-59" rx="18" ry="18"/>
<text text-anchor="middle" x="336" y="-55.3" font-family="Times,serif" font-size="14.00">5</text>
</g>
<!-- 4&#45;&gt;5 -->
<g id="edge8" class="edge">
<title>4&#45;&gt;5</title>
<path fill="none" stroke="black" d="M245.9,-76.45C251.96,-73.32 259.14,-70.05 266,-68 279.47,-63.97 294.96,-61.74 307.84,-60.51"/>
<polygon fill="black" stroke="black" points="308.27,-63.99 317.95,-59.7 307.7,-57.01 308.27,-63.99"/>
<text text-anchor="middle" x="283" y="-86.8" font-family="Times,serif" font-size="14.00">&quot;F&quot; </text>
<text text-anchor="middle" x="283" y="-71.8" font-family="Times,serif" font-size="14.00"> AS2</text>
</g>
<!-- 6 -->
<g id="node7" class="node">
<title>6</title>
<ellipse fill="none" stroke="black" cx="484.5" cy="-48" rx="18" ry="18"/>
<text text-anchor="middle" x="484.5" y="-44.3" font-family="Times,serif" font-size="14.00">6</text>
</g>
<!-- 5&#45;&gt;6 -->
<g id="edge9" class="edge">
<title>5&#45;&gt;6</title>
<path fill="none" stroke="black" d="M354.09,-57.72C379.23,-55.83 426.43,-52.28 456.35,-50.04"/>
<polygon fill="black" stroke="black" points="456.81,-53.51 466.52,-49.28 456.28,-46.53 456.81,-53.51"/>
<text text-anchor="middle" x="401" y="-75.8" font-family="Times,serif" font-size="14.00">&quot;+&quot;, &quot;&#45;&quot; </text>
<text text-anchor="middle" x="401" y="-60.8" font-family="Times,serif" font-size="14.00"> AS2</text>
</g>
<!-- 7 -->
<g id="node8" class="node">
<title>7</title>
<ellipse fill="none" stroke="black" cx="609" cy="-18" rx="18" ry="18"/>
<text text-anchor="middle" x="609" y="-14.3" font-family="Times,serif" font-size="14.00">7</text>
</g>
<!-- 6&#45;&gt;7 -->
<g id="edge10" class="edge">
<title>6&#45;&gt;7</title>
<path fill="none" stroke="black" d="M502.28,-43.89C522.71,-38.89 557.47,-30.37 581.53,-24.48"/>
<polygon fill="black" stroke="black" points="582.55,-27.84 591.43,-22.06 580.88,-21.04 582.55,-27.84"/>
<text text-anchor="middle" x="556" y="-53.8" font-family="Times,serif" font-size="14.00">d </text>
<text text-anchor="middle" x="556" y="-38.8" font-family="Times,serif" font-size="14.00"> AS2</text>
</g>
<!-- 7&#45;&gt;F -->
<g id="edge12" class="edge">
<title>7&#45;&gt;F</title>
<path fill="none" stroke="black" d="M626.29,-23.21C650.61,-30.98 696.77,-45.74 727.22,-55.48"/>
<polygon fill="black" stroke="black" points="726.29,-58.86 736.89,-58.57 728.43,-52.19 726.29,-58.86"/>
<text text-anchor="middle" x="681.5" y="-71.8" font-family="Times,serif" font-size="14.00">c &#45; d </text>
<text text-anchor="middle" x="681.5" y="-56.8" font-family="Times,serif" font-size="14.00"> AS3, ASR</text>
</g>
<!-- 7&#45;&gt;7 -->
<g id="edge11" class="edge">
<title>7&#45;&gt;7</title>
<path fill="none" stroke="black" d="M600.02,-33.92C597.68,-44.15 600.67,-54 609,-54 614.47,-54 617.63,-49.76 618.5,-43.95"/>
<polygon fill="black" stroke="black" points="622,-43.72 617.98,-33.92 615.01,-44.09 622,-43.72"/>
<text text-anchor="middle" x="609" y="-72.8" font-family="Times,serif" font-size="14.00">d </text>
<text text-anchor="middle" x="609" y="-57.8" font-family="Times,serif" font-size="14.00"> AS2</text>
</g>
</g>
</svg>
