<?xml version="1.0" encoding="UTF-8" standalone="no"?>
<!DOCTYPE svg PUBLIC "-//W3C//DTD SVG 1.1//EN"
 "http://www.w3.org/Graphics/SVG/1.1/DTD/svg11.dtd">
<!-- Generated by graphviz version 2.42.4 (0)
 -->
<!-- Title: DFA Pages: 1 -->
<svg width="336pt" height="101pt"
 viewBox="0.00 0.00 336.50 101.50" xmlns="http://www.w3.org/2000/svg" xmlns:xlink="http://www.w3.org/1999/xlink">
<g id="graph0" class="graph" transform="scale(1 1) rotate(0) translate(4 97.5)">
<title>DFA</title>
<polygon fill="white" stroke="transparent" points="-4,4 -4,-97.5 332.5,-97.5 332.5,4 -4,4"/>
<!-- F -->
<g id="node1" class="node">
<title>F</title>
<ellipse fill="none" stroke="black" cx="306.5" cy="-22.75" rx="18" ry="18"/>
<ellipse fill="none" stroke="black" cx="306.5" cy="-22.75" rx="22" ry="22"/>
<text text-anchor="middle" x="306.5" y="-19.05" font-family="Times,serif" font-size="14.00">F</text>
</g>
<!-- 0 -->
<g id="node2" class="node">
<title>0</title>
<ellipse fill="none" stroke="black" cx="18" cy="-22.75" rx="18" ry="18"/>
<text text-anchor="middle" x="18" y="-19.05" font-family="Times,serif" font-size="14.00">0</text>
</g>
<!-- 18 -->
<g id="node3" class="node">
<title>18</title>
<ellipse fill="none" stroke="black" cx="128.75" cy="-22.75" rx="23" ry="23"/>
<text text-anchor="middle" x="128.75" y="-19.05" font-family="Times,serif" font-size="14.00">18</text>
</g>
<!-- 0&#45;&gt;18 -->
<g id="edge1" class="edge">
<title>0&#45;&gt;18</title>
<path fill="none" stroke="black" d="M36.47,-22.75C52.38,-22.75 76.26,-22.75 95.61,-22.75"/>
<polygon fill="black" stroke="black" points="95.81,-26.25 105.81,-22.75 95.81,-19.25 95.81,-26.25"/>
<text text-anchor="middle" x="71" y="-41.55" font-family="Times,serif" font-size="14.00">L </text>
<text text-anchor="middle" x="71" y="-26.55" font-family="Times,serif" font-size="14.00"> AS1</text>
</g>
<!-- 18&#45;&gt;F -->
<g id="edge3" class="edge">
<title>18&#45;&gt;F</title>
<path fill="none" stroke="black" d="M151.65,-22.75C182.51,-22.75 238.93,-22.75 274.2,-22.75"/>
<polygon fill="black" stroke="black" points="274.42,-26.25 284.42,-22.75 274.42,-19.25 274.42,-26.25"/>
<text text-anchor="middle" x="218" y="-41.55" font-family="Times,serif" font-size="14.00">C &#45; L &#45; d &#45; &quot;%&quot;</text>
<text text-anchor="middle" x="218" y="-26.55" font-family="Times,serif" font-size="14.00">AS3, ASR</text>
</g>
<!-- 18&#45;&gt;18 -->
<g id="edge2" class="edge">
<title>18&#45;&gt;18</title>
<path fill="none" stroke="black" d="M118.62,-43.29C117.06,-53.92 120.44,-63.5 128.75,-63.5 134.2,-63.5 137.53,-59.37 138.74,-53.53"/>
<polygon fill="black" stroke="black" points="142.24,-53.34 138.88,-43.29 135.24,-53.25 142.24,-53.34"/>
<text text-anchor="middle" x="128.75" y="-82.3" font-family="Times,serif" font-size="14.00">L, d, &quot;%&quot;</text>
<text text-anchor="middle" x="128.75" y="-67.3" font-family="Times,serif" font-size="14.00">AS2</text>
</g>
</g>
</svg>
