<?xml version="1.0" encoding="UTF-8" standalone="no"?>
<!DOCTYPE svg PUBLIC "-//W3C//DTD SVG 1.1//EN"
 "http://www.w3.org/Graphics/SVG/1.1/DTD/svg11.dtd">
<!-- Generated by graphviz version 2.42.4 (0)
 -->
<!-- Title: DFA Pages: 1 -->
<svg width="544pt" height="565pt"
 viewBox="0.00 0.00 544.00 565.24" xmlns="http://www.w3.org/2000/svg" xmlns:xlink="http://www.w3.org/1999/xlink">
<g id="graph0" class="graph" transform="scale(1 1) rotate(0) translate(4 561.24)">
<title>DFA</title>
<polygon fill="white" stroke="transparent" points="-4,4 -4,-561.24 540,-561.24 540,4 -4,4"/>
<!-- F -->
<g id="node1" class="node">
<title>F</title>
<ellipse fill="none" stroke="black" cx="514" cy="-255.24" rx="18" ry="18"/>
<ellipse fill="none" stroke="black" cx="514" cy="-255.24" rx="22" ry="22"/>
<text text-anchor="middle" x="514" y="-251.54" font-family="Times,serif" font-size="14.00">F</text>
</g>
<!-- 0 -->
<g id="node2" class="node">
<title>0</title>
<ellipse fill="none" stroke="black" cx="18" cy="-310.24" rx="18" ry="18"/>
<text text-anchor="middle" x="18" y="-306.54" font-family="Times,serif" font-size="14.00">0</text>
</g>
<!-- 0&#45;&gt;F -->
<g id="edge6" class="edge">
<title>0&#45;&gt;F</title>
<path fill="none" stroke="black" d="M22.69,-327.8C27.48,-347.7 37.28,-380.45 54,-404.24 71.4,-429.01 78.04,-436.62 106,-448.24 257.35,-511.14 348.27,-577.39 474,-472.24 501.73,-449.05 509.77,-341.92 512.08,-287.37"/>
<polygon fill="black" stroke="black" points="515.59,-287.32 512.47,-277.2 508.59,-287.05 515.59,-287.32"/>
<text text-anchor="middle" x="237" y="-546.04" font-family="Times,serif" font-size="14.00">&quot;+&quot;, &quot;*&quot;, &quot;/&quot;, &quot;(&quot;, &quot;)&quot;, &quot;{&quot;, &quot;}&quot;, &quot;_&quot;, &quot;;&quot; </text>
<text text-anchor="middle" x="237" y="-531.04" font-family="Times,serif" font-size="14.00"> AS1, AS3</text>
</g>
<!-- 10 -->
<g id="node3" class="node">
<title>10</title>
<ellipse fill="none" stroke="black" cx="237" cy="-416.24" rx="23" ry="23"/>
<text text-anchor="middle" x="237" y="-412.54" font-family="Times,serif" font-size="14.00">10</text>
</g>
<!-- 0&#45;&gt;10 -->
<g id="edge1" class="edge">
<title>0&#45;&gt;10</title>
<path fill="none" stroke="black" d="M28.51,-325.12C34.83,-334.01 43.81,-344.95 54,-352.24 100.42,-385.49 165.72,-402.84 204.17,-410.72"/>
<polygon fill="black" stroke="black" points="203.78,-414.21 214.27,-412.7 205.13,-407.34 203.78,-414.21"/>
<text text-anchor="middle" x="71" y="-389.04" font-family="Times,serif" font-size="14.00">&quot;:&quot; </text>
<text text-anchor="middle" x="71" y="-374.04" font-family="Times,serif" font-size="14.00"> AS1</text>
</g>
<!-- 11 -->
<g id="node4" class="node">
<title>11</title>
<ellipse fill="none" stroke="black" cx="237" cy="-340.24" rx="23" ry="23"/>
<text text-anchor="middle" x="237" y="-336.54" font-family="Times,serif" font-size="14.00">11</text>
</g>
<!-- 0&#45;&gt;11 -->
<g id="edge3" class="edge">
<title>0&#45;&gt;11</title>
<path fill="none" stroke="black" d="M36.03,-312.6C72.27,-317.61 157.53,-329.39 204.17,-335.84"/>
<polygon fill="black" stroke="black" points="203.93,-339.34 214.32,-337.24 204.89,-332.41 203.93,-339.34"/>
<text text-anchor="middle" x="71" y="-337.04" font-family="Times,serif" font-size="14.00">&quot;=&quot; </text>
<text text-anchor="middle" x="71" y="-322.04" font-family="Times,serif" font-size="14.00"> AS1</text>
</g>
<!-- 12 -->
<g id="node5" class="node">
<title>12</title>
<ellipse fill="none" stroke="black" cx="237" cy="-277.24" rx="23" ry="23"/>
<text text-anchor="middle" x="237" y="-273.54" font-family="Times,serif" font-size="14.00">12</text>
</g>
<!-- 0&#45;&gt;12 -->
<g id="edge7" class="edge">
<title>0&#45;&gt;12</title>
<path fill="none" stroke="black" d="M30.63,-297.19C36.88,-291.13 45.13,-284.55 54,-281.24 103.86,-262.65 166.87,-266.78 204.16,-271.79"/>
<polygon fill="black" stroke="black" points="204.01,-275.31 214.41,-273.28 205.02,-268.38 204.01,-275.31"/>
<text text-anchor="middle" x="71" y="-300.04" font-family="Times,serif" font-size="14.00">&quot;&#45;&quot; </text>
<text text-anchor="middle" x="71" y="-285.04" font-family="Times,serif" font-size="14.00"> AS1</text>
</g>
<!-- 13 -->
<g id="node6" class="node">
<title>13</title>
<ellipse fill="none" stroke="black" cx="237" cy="-176.24" rx="23" ry="23"/>
<text text-anchor="middle" x="237" y="-172.54" font-family="Times,serif" font-size="14.00">13</text>
</g>
<!-- 0&#45;&gt;13 -->
<g id="edge10" class="edge">
<title>0&#45;&gt;13</title>
<path fill="none" stroke="black" d="M23.32,-292.75C28.18,-276.49 37.64,-252.69 54,-238.24 97.09,-200.19 164.57,-185.28 204.12,-179.59"/>
<polygon fill="black" stroke="black" points="204.8,-183.03 214.26,-178.25 203.88,-176.09 204.8,-183.03"/>
<text text-anchor="middle" x="71" y="-257.04" font-family="Times,serif" font-size="14.00">&quot;&gt;&quot; </text>
<text text-anchor="middle" x="71" y="-242.04" font-family="Times,serif" font-size="14.00"> AS1</text>
</g>
<!-- 14 -->
<g id="node7" class="node">
<title>14</title>
<ellipse fill="none" stroke="black" cx="237" cy="-70.24" rx="23" ry="23"/>
<text text-anchor="middle" x="237" y="-66.54" font-family="Times,serif" font-size="14.00">14</text>
</g>
<!-- 0&#45;&gt;14 -->
<g id="edge13" class="edge">
<title>0&#45;&gt;14</title>
<path fill="none" stroke="black" d="M20.29,-292.3C22.93,-266.23 30.82,-217.26 54,-183.24 91.15,-128.72 164.19,-95.51 205.55,-80.24"/>
<polygon fill="black" stroke="black" points="206.86,-83.49 215.1,-76.83 204.51,-76.9 206.86,-83.49"/>
<text text-anchor="middle" x="71" y="-202.04" font-family="Times,serif" font-size="14.00">&quot;&lt;&quot; </text>
<text text-anchor="middle" x="71" y="-187.04" font-family="Times,serif" font-size="14.00"> AS1</text>
</g>
<!-- 10&#45;&gt;F -->
<g id="edge2" class="edge">
<title>10&#45;&gt;F</title>
<path fill="none" stroke="black" d="M258.76,-423.05C303.6,-436.33 410.54,-460.16 474,-409.24 492.85,-394.12 504.17,-327.53 509.43,-287.03"/>
<polygon fill="black" stroke="black" points="512.91,-287.46 510.67,-277.1 505.96,-286.59 512.91,-287.46"/>
<text text-anchor="middle" x="430" y="-458.04" font-family="Times,serif" font-size="14.00">&quot;=&quot; </text>
<text text-anchor="middle" x="430" y="-443.04" font-family="Times,serif" font-size="14.00"> AS2, AS3</text>
</g>
<!-- 11&#45;&gt;F -->
<g id="edge4" class="edge">
<title>11&#45;&gt;F</title>
<path fill="none" stroke="black" d="M259.01,-346.03C310.2,-359.61 439.69,-390.55 474,-366.24 498.9,-348.6 508.02,-313.74 511.3,-287.77"/>
<polygon fill="black" stroke="black" points="514.8,-287.92 512.35,-277.61 507.84,-287.2 514.8,-287.92"/>
<text text-anchor="middle" x="430" y="-394.04" font-family="Times,serif" font-size="14.00">&quot;=&quot;, &quot;!&quot; </text>
<text text-anchor="middle" x="430" y="-379.04" font-family="Times,serif" font-size="14.00"> AS2, AS3</text>
</g>
<!-- 11&#45;&gt;F -->
<g id="edge5" class="edge">
<title>11&#45;&gt;F</title>
<path fill="none" stroke="black" d="M259.81,-341.46C303.5,-342.9 403.55,-341.17 474,-301.24 482.25,-296.57 489.54,-289.44 495.52,-282.19"/>
<polygon fill="black" stroke="black" points="498.67,-283.83 501.92,-273.75 493.09,-279.6 498.67,-283.83"/>
<text text-anchor="middle" x="430" y="-350.04" font-family="Times,serif" font-size="14.00">C &#45; &quot;=&quot; &#45; &quot;!&quot; </text>
<text text-anchor="middle" x="430" y="-335.04" font-family="Times,serif" font-size="14.00"> AS3, ASR</text>
</g>
<!-- 12&#45;&gt;F -->
<g id="edge8" class="edge">
<title>12&#45;&gt;F</title>
<path fill="none" stroke="black" d="M259.83,-276.08C301.52,-273.76 395.32,-268.11 474,-260.24 476.56,-259.99 479.2,-259.7 481.86,-259.39"/>
<polygon fill="black" stroke="black" points="482.47,-262.84 491.97,-258.16 481.62,-255.89 482.47,-262.84"/>
<text text-anchor="middle" x="430" y="-286.04" font-family="Times,serif" font-size="14.00">&quot;&gt;&quot; </text>
<text text-anchor="middle" x="430" y="-271.04" font-family="Times,serif" font-size="14.00"> AS2</text>
</g>
<!-- 12&#45;&gt;F -->
<g id="edge9" class="edge">
<title>12&#45;&gt;F</title>
<path fill="none" stroke="black" d="M258.03,-267.94C285.97,-255.53 338.56,-234.19 386,-226.24 424.57,-219.78 436.87,-213.95 474,-226.24 479.41,-228.03 484.67,-230.89 489.5,-234.14"/>
<polygon fill="black" stroke="black" points="487.54,-237.05 497.64,-240.24 491.74,-231.44 487.54,-237.05"/>
<text text-anchor="middle" x="430" y="-245.04" font-family="Times,serif" font-size="14.00">C &#45; &quot;&gt;&quot; </text>
<text text-anchor="middle" x="430" y="-230.04" font-family="Times,serif" font-size="14.00"> AS3, ASR</text>
</g>
<!-- 13&#45;&gt;F -->
<g id="edge11" class="edge">
<title>13&#45;&gt;F</title>
<path fill="none" stroke="black" d="M259.2,-170.5C303.05,-159.92 405.37,-142.05 474,-184.24 488.64,-193.24 498.19,-209.84 504.18,-224.72"/>
<polygon fill="black" stroke="black" points="500.9,-225.95 507.61,-234.15 507.48,-223.56 500.9,-225.95"/>
<text text-anchor="middle" x="430" y="-203.04" font-family="Times,serif" font-size="14.00">&quot;=&quot; </text>
<text text-anchor="middle" x="430" y="-188.04" font-family="Times,serif" font-size="14.00"> AS2, AS3</text>
</g>
<!-- 13&#45;&gt;F -->
<g id="edge12" class="edge">
<title>13&#45;&gt;F</title>
<path fill="none" stroke="black" d="M256,-163.51C298.4,-135.25 406.06,-73.58 474,-124.24 504.29,-146.83 511.99,-192 513.48,-222.92"/>
<polygon fill="black" stroke="black" points="509.99,-223.31 513.78,-233.2 516.99,-223.1 509.99,-223.31"/>
<text text-anchor="middle" x="430" y="-143.04" font-family="Times,serif" font-size="14.00">C &#45; &quot;=&quot; </text>
<text text-anchor="middle" x="430" y="-128.04" font-family="Times,serif" font-size="14.00"> AS3, ASR</text>
</g>
<!-- 14&#45;&gt;F -->
<g id="edge14" class="edge">
<title>14&#45;&gt;F</title>
<path fill="none" stroke="black" d="M259.62,-66.93C311.59,-59.47 441.62,-43.98 474,-70.24 497.28,-89.13 507.2,-175.27 510.97,-223.06"/>
<polygon fill="black" stroke="black" points="507.49,-223.49 511.72,-233.2 514.47,-222.97 507.49,-223.49"/>
<text text-anchor="middle" x="430" y="-89.04" font-family="Times,serif" font-size="14.00">&quot;=&quot; </text>
<text text-anchor="middle" x="430" y="-74.04" font-family="Times,serif" font-size="14.00"> AS2, AS3</text>
</g>
<!-- 14&#45;&gt;F -->
<g id="edge15" class="edge">
<title>14&#45;&gt;F</title>
<path fill="none" stroke="black" d="M256.15,-57.66C299.32,-29.41 409.38,32.46 474,-22.24 503.99,-47.63 510.93,-165.5 512.53,-223.22"/>
<polygon fill="black" stroke="black" points="509.03,-223.35 512.77,-233.27 516.03,-223.18 509.03,-223.35"/>
<text text-anchor="middle" x="430" y="-41.04" font-family="Times,serif" font-size="14.00">C &#45; &quot;=&quot; </text>
<text text-anchor="middle" x="430" y="-26.04" font-family="Times,serif" font-size="14.00"> AS3, ASR</text>
</g>
</g>
</svg>
