<?xml version="1.0" encoding="UTF-8" standalone="no"?>
<!DOCTYPE svg PUBLIC "-//W3C//DTD SVG 1.1//EN"
 "http://www.w3.org/Graphics/SVG/1.1/DTD/svg11.dtd">
<!-- Generated by graphviz version 2.42.4 (0)
 -->
<!-- Title: DFA Pages: 1 -->
<svg width="518pt" height="619pt"
 viewBox="0.00 0.00 518.00 619.00" xmlns="http://www.w3.org/2000/svg" xmlns:xlink="http://www.w3.org/1999/xlink">
<g id="graph0" class="graph" transform="scale(1 1) rotate(0) translate(4 615)">
<title>DFA</title>
<polygon fill="white" stroke="transparent" points="-4,4 -4,-615 514,-615 514,4 -4,4"/>
<!-- F -->
<g id="node1" class="node">
<title>F</title>
<ellipse fill="none" stroke="black" cx="473.5" cy="-339" rx="18" ry="18"/>
<ellipse fill="none" stroke="black" cx="473.5" cy="-339" rx="22" ry="22"/>
<text text-anchor="middle" x="473.5" y="-335.3" font-family="Times,serif" font-size="14.00">F</text>
</g>
<!-- 0 -->
<g id="node2" class="node">
<title>0</title>
<ellipse fill="none" stroke="black" cx="18" cy="-339" rx="18" ry="18"/>
<text text-anchor="middle" x="18" y="-335.3" font-family="Times,serif" font-size="14.00">0</text>
</g>
<!-- 15 -->
<g id="node3" class="node">
<title>15</title>
<ellipse fill="none" stroke="black" cx="258.75" cy="-339" rx="23" ry="23"/>
<text text-anchor="middle" x="258.75" y="-335.3" font-family="Times,serif" font-size="14.00">15</text>
</g>
<!-- 0&#45;&gt;15 -->
<g id="edge1" class="edge">
<title>0&#45;&gt;15</title>
<path fill="none" stroke="black" d="M20.33,-357.15C24.39,-406.85 38.45,-543.27 72,-570 116.5,-605.44 155.16,-605.01 200,-570 231.06,-545.75 247.88,-429.52 254.45,-371.75"/>
<polygon fill="black" stroke="black" points="257.94,-372 255.56,-361.67 250.99,-371.23 257.94,-372"/>
<text text-anchor="middle" x="136" y="-599.8" font-family="Times,serif" font-size="14.00">L</text>
<text text-anchor="middle" x="241.06" y="-365.47" font-family="Times,serif" font-size="14.00">AS1</text>
</g>
<!-- 0&#45;&gt;15 -->
<g id="edge4" class="edge">
<title>0&#45;&gt;15</title>
<path fill="none" stroke="black" d="M28.23,-353.92C37.45,-367.25 52.96,-385.91 72,-394 124.35,-416.26 147.18,-415.13 200,-394 214.9,-388.04 228.14,-376.21 238.17,-365.04"/>
<polygon fill="black" stroke="black" points="241.09,-367.01 244.89,-357.12 235.75,-362.48 241.09,-367.01"/>
<text text-anchor="middle" x="136" y="-413.8" font-family="Times,serif" font-size="14.00">L</text>
<text text-anchor="middle" x="225.21" y="-349.84" font-family="Times,serif" font-size="14.00">AS1</text>
</g>
<!-- 0&#45;&gt;15 -->
<g id="edge5" class="edge">
<title>0&#45;&gt;15</title>
<path fill="none" stroke="black" d="M36.17,-339C75.8,-339 174.17,-339 225.46,-339"/>
<polygon fill="black" stroke="black" points="225.66,-342.5 235.66,-339 225.66,-335.5 225.66,-342.5"/>
<text text-anchor="start" x="131.5" y="-357.8" font-family="Times,serif" font-size="14.00">L</text>
<text text-anchor="start" x="126" y="-344" font-family="Times,serif" font-size="10.00">AS1</text>
</g>
<!-- 0&#45;&gt;15 -->
<g id="edge6" class="edge">
<title>0&#45;&gt;15</title>
<path fill="none" stroke="black" d="M34.46,-331.42C52.03,-323.27 81.8,-310.83 109,-306 132.63,-301.8 139.34,-302 163,-306 185.56,-309.82 209.92,-318.41 228.29,-325.87"/>
<polygon fill="black" stroke="black" points="227,-329.12 237.57,-329.75 229.7,-322.66 227,-329.12"/>
<text text-anchor="middle" x="136" y="-309.8" font-family="Times,serif" font-size="14.00">L</text>
</g>
<!-- x1 -->
<g id="node4" class="node">
<title>x1</title>
<text text-anchor="middle" x="136" y="-14.3" font-family="Times,serif" font-size="14.00">AS1</text>
</g>
<!-- 0&#45;&gt;x1 -->
<!-- 15&#45;&gt;F -->
<g id="edge3" class="edge">
<title>15&#45;&gt;F</title>
<path fill="none" stroke="black" d="M281.71,-339C319.67,-339 397.64,-339 441.24,-339"/>
<polygon fill="black" stroke="black" points="441.28,-342.5 451.28,-339 441.28,-335.5 441.28,-342.5"/>
<text text-anchor="middle" x="366.5" y="-357.8" font-family="Times,serif" font-size="14.00">c &#45; L &#45; d &#45; &quot;%&quot; </text>
<text text-anchor="middle" x="366.5" y="-342.8" font-family="Times,serif" font-size="14.00"> AS#</text>
<text text-anchor="middle" x="351.83" y="-327.8" font-family="Times,serif" font-size="14.00">AS3</text>
</g>
<!-- 15&#45;&gt;15 -->
<g id="edge2" class="edge">
<title>15&#45;&gt;15</title>
<path fill="none" stroke="black" d="M251.81,-360.89C244.82,-393.24 247.14,-433.75 258.75,-433.75 269.18,-433.75 272.11,-401.05 267.53,-370.95"/>
<polygon fill="black" stroke="black" points="270.93,-370.09 265.69,-360.89 264.04,-371.35 270.93,-370.09"/>
<text text-anchor="middle" x="258.75" y="-452.55" font-family="Times,serif" font-size="14.00">L, d, &quot;%&quot; </text>
<text text-anchor="middle" x="258.75" y="-437.55" font-family="Times,serif" font-size="14.00">AS2</text>
</g>
<!-- x1&#45;&gt;15 -->
<g id="edge8" class="edge">
<title>x1&#45;&gt;15</title>
<path fill="none" stroke="black" stroke-dasharray="1,5" d="M149.74,-36.14C163.76,-56.81 186.14,-92.01 200,-125 228.25,-192.23 246.32,-277.19 253.8,-316.79"/>
</g>
</g>
</svg>
