<?xml version="1.0" encoding="UTF-8" standalone="no"?>
<!DOCTYPE svg PUBLIC "-//W3C//DTD SVG 1.1//EN"
 "http://www.w3.org/Graphics/SVG/1.1/DTD/svg11.dtd">
<!-- Generated by graphviz version 2.42.4 (0)
 -->
<!-- Title: DFA Pages: 1 -->
<svg width="458pt" height="152pt"
 viewBox="0.00 0.00 457.60 151.75" xmlns="http://www.w3.org/2000/svg" xmlns:xlink="http://www.w3.org/1999/xlink">
<g id="graph0" class="graph" transform="scale(1 1) rotate(0) translate(4 147.75)">
<title>DFA</title>
<polygon fill="white" stroke="transparent" points="-4,4 -4,-147.75 453.6,-147.75 453.6,4 -4,4"/>
<!-- F -->
<g id="node1" class="node">
<title>F</title>
<ellipse fill="none" stroke="black" cx="427.6" cy="-114.75" rx="18" ry="18"/>
<ellipse fill="none" stroke="black" cx="427.6" cy="-114.75" rx="22" ry="22"/>
<text text-anchor="middle" x="427.6" y="-111.05" font-family="Times,serif" font-size="14.00">F</text>
</g>
<!-- start -->
<g id="node2" class="node">
<title>start</title>
<ellipse fill="black" stroke="black" cx="1.8" cy="-85.75" rx="1.8" ry="1.8"/>
</g>
<!-- start&#45;&gt;F -->
<g id="edge5" class="edge">
<title>start&#45;&gt;F</title>
<path fill="none" stroke="black" d="M3.4,-86.62C5.53,-89.61 13,-99.6 21.6,-104.75 39.1,-115.21 45.48,-114.46 65.6,-117.75 186.31,-137.45 218.32,-125.53 340.6,-127.75 361.49,-128.13 366.98,-131.09 387.6,-127.75 390.67,-127.25 393.83,-126.54 396.95,-125.72"/>
<polygon fill="black" stroke="black" points="398.12,-129.02 406.67,-122.76 396.08,-122.32 398.12,-129.02"/>
<text text-anchor="middle" x="194.1" y="-132.55" font-family="Times,serif" font-size="14.00">&quot;+&quot;, &quot;*&quot;, &quot;/&quot;, &quot;(&quot;, &quot;)&quot;, &quot;{&quot;, &quot;}&quot;, &quot;_&quot;, &quot;;&quot;</text>
</g>
<!-- 13 -->
<g id="node3" class="node">
<title>13</title>
<ellipse fill="none" stroke="black" cx="194.1" cy="-85.75" rx="23" ry="23"/>
<text text-anchor="middle" x="194.1" y="-82.05" font-family="Times,serif" font-size="14.00">13</text>
</g>
<!-- start&#45;&gt;13 -->
<g id="edge1" class="edge">
<title>start&#45;&gt;13</title>
<path fill="none" stroke="black" d="M3.65,-85.75C13.64,-85.75 109.37,-85.75 160.8,-85.75"/>
<polygon fill="black" stroke="black" points="161.05,-89.25 171.05,-85.75 161.05,-82.25 161.05,-89.25"/>
<text text-anchor="middle" x="34.6" y="-89.55" font-family="Times,serif" font-size="14.00">&quot;&#45;&quot;</text>
</g>
<!-- 14 -->
<g id="node4" class="node">
<title>14</title>
<ellipse fill="none" stroke="black" cx="194.1" cy="-22.75" rx="23" ry="23"/>
<text text-anchor="middle" x="194.1" y="-19.05" font-family="Times,serif" font-size="14.00">14</text>
</g>
<!-- start&#45;&gt;14 -->
<g id="edge4" class="edge">
<title>start&#45;&gt;14</title>
<path fill="none" stroke="black" d="M3.4,-84.88C5.53,-81.88 13,-71.89 21.6,-66.75 65.66,-40.4 125.22,-29.7 161.31,-25.45"/>
<polygon fill="black" stroke="black" points="161.71,-28.93 171.27,-24.37 160.95,-21.97 161.71,-28.93"/>
<text text-anchor="middle" x="34.6" y="-70.55" font-family="Times,serif" font-size="14.00">&quot;=&quot;</text>
</g>
<!-- 13&#45;&gt;F -->
<g id="edge2" class="edge">
<title>13&#45;&gt;F</title>
<path fill="none" stroke="black" d="M216.88,-88.48C258.21,-93.65 348.14,-104.92 395.69,-110.88"/>
<polygon fill="black" stroke="black" points="395.36,-114.36 405.72,-112.13 396.23,-107.42 395.36,-114.36"/>
<text text-anchor="middle" x="364.1" y="-112.55" font-family="Times,serif" font-size="14.00">&quot;&gt;&quot;</text>
</g>
<!-- 13&#45;&gt;F -->
<g id="edge3" class="edge">
<title>13&#45;&gt;F</title>
<path fill="none" stroke="black" d="M216.62,-81.18C252.99,-74.43 328.43,-64.62 387.6,-84.75 393.06,-86.6 398.35,-89.57 403.18,-92.93"/>
<polygon fill="black" stroke="black" points="401.28,-95.88 411.32,-99.24 405.57,-90.35 401.28,-95.88"/>
<text text-anchor="middle" x="364.1" y="-88.55" font-family="Times,serif" font-size="14.00">c &#45; &quot;&gt;&quot;</text>
</g>
</g>
</svg>
