<?xml version="1.0" encoding="UTF-8" standalone="no"?>
<!DOCTYPE svg PUBLIC "-//W3C//DTD SVG 1.1//EN"
 "http://www.w3.org/Graphics/SVG/1.1/DTD/svg11.dtd">
<!-- Generated by graphviz version 2.42.4 (0)
 -->
<!-- Title: DFA Pages: 1 -->
<svg width="236pt" height="86pt"
 viewBox="0.00 0.00 236.50 86.50" xmlns="http://www.w3.org/2000/svg" xmlns:xlink="http://www.w3.org/1999/xlink">
<g id="graph0" class="graph" transform="scale(1 1) rotate(0) translate(4 82.5)">
<title>DFA</title>
<polygon fill="white" stroke="transparent" points="-4,4 -4,-82.5 232.5,-82.5 232.5,4 -4,4"/>
<!-- F -->
<g id="node1" class="node">
<title>F</title>
<ellipse fill="none" stroke="black" cx="206.5" cy="-22.75" rx="18" ry="18"/>
<ellipse fill="none" stroke="black" cx="206.5" cy="-22.75" rx="22" ry="22"/>
<text text-anchor="middle" x="206.5" y="-19.05" font-family="Times,serif" font-size="14.00">F</text>
</g>
<!-- 0 -->
<g id="node2" class="node">
<title>0</title>
<ellipse fill="none" stroke="black" cx="18" cy="-22.75" rx="18" ry="18"/>
<text text-anchor="middle" x="18" y="-19.05" font-family="Times,serif" font-size="14.00">0</text>
</g>
<!-- 12 -->
<g id="node3" class="node">
<title>12</title>
<ellipse fill="none" stroke="black" cx="99.75" cy="-22.75" rx="23" ry="23"/>
<text text-anchor="middle" x="99.75" y="-19.05" font-family="Times,serif" font-size="14.00">12</text>
</g>
<!-- 0&#45;&gt;12 -->
<g id="edge1" class="edge">
<title>0&#45;&gt;12</title>
<path fill="none" stroke="black" d="M36.3,-22.75C45.24,-22.75 56.42,-22.75 66.85,-22.75"/>
<polygon fill="black" stroke="black" points="66.91,-26.25 76.91,-22.75 66.91,-19.25 66.91,-26.25"/>
<text text-anchor="middle" x="56.5" y="-26.55" font-family="Times,serif" font-size="14.00">l</text>
</g>
<!-- 12&#45;&gt;F -->
<g id="edge3" class="edge">
<title>12&#45;&gt;F</title>
<path fill="none" stroke="black" d="M122.71,-22.75C137.57,-22.75 157.43,-22.75 173.97,-22.75"/>
<polygon fill="black" stroke="black" points="174.28,-26.25 184.28,-22.75 174.28,-19.25 174.28,-26.25"/>
<text text-anchor="middle" x="153.5" y="-26.55" font-family="Times,serif" font-size="14.00">c &#45; l</text>
<text text-anchor="middle" x="174.28" y="-11.55" font-family="Times,serif" font-size="14.00">AS</text>
</g>
<!-- 12&#45;&gt;12 -->
<g id="edge2" class="edge">
<title>12&#45;&gt;12</title>
<path fill="none" stroke="black" d="M92.03,-44.55C91.19,-54.66 93.76,-63.5 99.75,-63.5 103.58,-63.5 106.02,-59.87 107.05,-54.6"/>
<polygon fill="black" stroke="black" points="110.55,-54.68 107.47,-44.55 103.56,-54.39 110.55,-54.68"/>
<text text-anchor="middle" x="99.75" y="-67.3" font-family="Times,serif" font-size="14.00">l</text>
</g>
</g>
</svg>
