<?xml version="1.0" encoding="UTF-8" standalone="no"?>
<!DOCTYPE svg PUBLIC "-//W3C//DTD SVG 1.1//EN"
 "http://www.w3.org/Graphics/SVG/1.1/DTD/svg11.dtd">
<!-- Generated by graphviz version 2.42.4 (0)
 -->
<!-- Title: DFA Pages: 1 -->
<svg width="420pt" height="140pt"
 viewBox="0.00 0.00 419.99 140.50" xmlns="http://www.w3.org/2000/svg" xmlns:xlink="http://www.w3.org/1999/xlink">
<g id="graph0" class="graph" transform="scale(1 1) rotate(0) translate(4 136.5)">
<title>DFA</title>
<polygon fill="white" stroke="transparent" points="-4,4 -4,-136.5 415.99,-136.5 415.99,4 -4,4"/>
<!-- F -->
<g id="node1" class="node">
<title>F</title>
<ellipse fill="none" stroke="black" cx="389.99" cy="-22.75" rx="18" ry="18"/>
<ellipse fill="none" stroke="black" cx="389.99" cy="-22.75" rx="22" ry="22"/>
<text text-anchor="middle" x="389.99" y="-19.05" font-family="Times,serif" font-size="14.00">F</text>
</g>
<!-- 0 -->
<g id="node2" class="node">
<title>0</title>
<ellipse fill="none" stroke="black" cx="18" cy="-22.75" rx="18" ry="18"/>
<text text-anchor="middle" x="18" y="-19.05" font-family="Times,serif" font-size="14.00">0</text>
</g>
<!-- 10 -->
<g id="node3" class="node">
<title>10</title>
<ellipse fill="none" stroke="black" cx="137.75" cy="-22.75" rx="23" ry="23"/>
<text text-anchor="middle" x="137.75" y="-19.05" font-family="Times,serif" font-size="14.00">10</text>
</g>
<!-- 0&#45;&gt;10 -->
<g id="edge1" class="edge">
<title>0&#45;&gt;10</title>
<path fill="none" stroke="black" d="M36.12,-22.75C53.99,-22.75 82.43,-22.75 104.53,-22.75"/>
<polygon fill="black" stroke="black" points="104.79,-26.25 114.79,-22.75 104.79,-19.25 104.79,-26.25"/>
<text text-anchor="middle" x="75.5" y="-26.55" font-family="Times,serif" font-size="14.00">&quot;</text>
</g>
<!-- 10&#45;&gt;10 -->
<g id="edge2" class="edge">
<title>10&#45;&gt;10</title>
<path fill="none" stroke="black" d="M130.33,-44.63C122.86,-76.99 125.34,-117.5 137.75,-117.5 148.9,-117.5 152.03,-84.8 147.13,-54.69"/>
<polygon fill="black" stroke="black" points="150.52,-53.78 145.17,-44.63 143.65,-55.12 150.52,-53.78"/>
<text text-anchor="middle" x="137.75" y="-121.3" font-family="Times,serif" font-size="14.00">L, l</text>
</g>
<!-- 11 -->
<g id="node4" class="node">
<title>11</title>
<ellipse fill="none" stroke="black" cx="262.24" cy="-22.75" rx="23" ry="23"/>
<text text-anchor="middle" x="262.24" y="-19.05" font-family="Times,serif" font-size="14.00">11</text>
</g>
<!-- 10&#45;&gt;11 -->
<g id="edge3" class="edge">
<title>10&#45;&gt;11</title>
<path fill="none" stroke="black" d="M160.65,-22.75C179.69,-22.75 207.53,-22.75 229.1,-22.75"/>
<polygon fill="black" stroke="black" points="229.12,-26.25 239.12,-22.75 229.12,-19.25 229.12,-26.25"/>
<text text-anchor="middle" x="200" y="-26.55" font-family="Times,serif" font-size="14.00">&quot;</text>
</g>
<!-- 11&#45;&gt;F -->
<g id="edge4" class="edge">
<title>11&#45;&gt;F</title>
<path fill="none" stroke="black" d="M285.15,-22.75C305.19,-22.75 335.08,-22.75 357.65,-22.75"/>
<polygon fill="black" stroke="black" points="357.76,-26.25 367.76,-22.75 357.76,-19.25 357.76,-26.25"/>
<text text-anchor="middle" x="326.49" y="-26.55" font-family="Times,serif" font-size="14.00">C</text>
</g>
</g>
</svg>
