<?xml version="1.0" encoding="UTF-8" standalone="no"?>
<!DOCTYPE svg PUBLIC "-//W3C//DTD SVG 1.1//EN"
 "http://www.w3.org/Graphics/SVG/1.1/DTD/svg11.dtd">
<!-- Generated by graphviz version 2.42.4 (0)
 -->
<!-- Title: DFA Pages: 1 -->
<svg width="403pt" height="81pt"
 viewBox="0.00 0.00 403.00 81.00" xmlns="http://www.w3.org/2000/svg" xmlns:xlink="http://www.w3.org/1999/xlink">
<g id="graph0" class="graph" transform="scale(1 1) rotate(0) translate(4 77)">
<title>DFA</title>
<polygon fill="white" stroke="transparent" points="-4,4 -4,-77 399,-77 399,4 -4,4"/>
<!-- F -->
<g id="node1" class="node">
<title>F</title>
<ellipse fill="none" stroke="black" cx="373" cy="-22" rx="18" ry="18"/>
<ellipse fill="none" stroke="black" cx="373" cy="-22" rx="22" ry="22"/>
<text text-anchor="middle" x="373" y="-18.3" font-family="Times,serif" font-size="14.00">F</text>
</g>
<!-- 0 -->
<g id="node2" class="node">
<title>0</title>
<ellipse fill="none" stroke="black" cx="18" cy="-22" rx="18" ry="18"/>
<text text-anchor="middle" x="18" y="-18.3" font-family="Times,serif" font-size="14.00">0</text>
</g>
<!-- 1 -->
<g id="node3" class="node">
<title>1</title>
<ellipse fill="none" stroke="black" cx="100" cy="-22" rx="18" ry="18"/>
<text text-anchor="middle" x="100" y="-18.3" font-family="Times,serif" font-size="14.00">1</text>
</g>
<!-- 0&#45;&gt;1 -->
<g id="edge1" class="edge">
<title>0&#45;&gt;1</title>
<path fill="none" stroke="black" d="M36.36,-22C46.7,-22 60.06,-22 71.78,-22"/>
<polygon fill="black" stroke="black" points="71.95,-25.5 81.95,-22 71.95,-18.5 71.95,-25.5"/>
<text text-anchor="middle" x="59" y="-25.8" font-family="Times,serif" font-size="14.00">d</text>
</g>
<!-- 1&#45;&gt;1 -->
<g id="edge2" class="edge">
<title>1&#45;&gt;1</title>
<path fill="none" stroke="black" d="M92.97,-38.66C91.41,-48.62 93.75,-58 100,-58 104,-58 106.4,-54.15 107.2,-48.77"/>
<polygon fill="black" stroke="black" points="110.7,-48.6 107.03,-38.66 103.7,-48.72 110.7,-48.6"/>
<text text-anchor="middle" x="100" y="-61.8" font-family="Times,serif" font-size="14.00">d</text>
</g>
<!-- 2 -->
<g id="node4" class="node">
<title>2</title>
<ellipse fill="none" stroke="black" cx="198" cy="-22" rx="18" ry="18"/>
<text text-anchor="middle" x="198" y="-18.3" font-family="Times,serif" font-size="14.00">2</text>
</g>
<!-- 1&#45;&gt;2 -->
<g id="edge3" class="edge">
<title>1&#45;&gt;2</title>
<path fill="none" stroke="black" d="M118.16,-22C132.5,-22 153.19,-22 169.78,-22"/>
<polygon fill="black" stroke="black" points="169.99,-25.5 179.99,-22 169.99,-18.5 169.99,-25.5"/>
<text text-anchor="middle" x="149" y="-25.8" font-family="Times,serif" font-size="14.00">&quot;U&quot;</text>
</g>
<!-- 3 -->
<g id="node5" class="node">
<title>3</title>
<ellipse fill="none" stroke="black" cx="289" cy="-22" rx="18" ry="18"/>
<text text-anchor="middle" x="289" y="-18.3" font-family="Times,serif" font-size="14.00">3</text>
</g>
<!-- 2&#45;&gt;3 -->
<g id="edge4" class="edge">
<title>2&#45;&gt;3</title>
<path fill="none" stroke="black" d="M216.16,-22C228.72,-22 246.02,-22 260.5,-22"/>
<polygon fill="black" stroke="black" points="260.89,-25.5 270.89,-22 260.89,-18.5 260.89,-25.5"/>
<text text-anchor="middle" x="243.5" y="-25.8" font-family="Times,serif" font-size="14.00">&quot;I&quot;</text>
</g>
<!-- 3&#45;&gt;F -->
<g id="edge5" class="edge">
<title>3&#45;&gt;F</title>
<path fill="none" stroke="black" d="M307.39,-22C317.11,-22 329.51,-22 340.85,-22"/>
<polygon fill="black" stroke="black" points="340.85,-25.5 350.85,-22 340.85,-18.5 340.85,-25.5"/>
<text text-anchor="middle" x="329" y="-25.8" font-family="Times,serif" font-size="14.00">c</text>
</g>
</g>
</svg>
